<?xml version="1.0" encoding="UTF-8" standalone="no"?>
<!DOCTYPE svg PUBLIC "-//W3C//DTD SVG 1.1//EN"
 "http://www.w3.org/Graphics/SVG/1.1/DTD/svg11.dtd">
<!-- Generated by graphviz version 15.0.0 (20260523.1842)
 -->
<!-- Title: HighLevelArchitecture Pages: 1 -->
<svg width="1015pt" height="2397pt"
 viewBox="0.00 0.00 1015.00 2397.00" xmlns="http://www.w3.org/2000/svg" xmlns:xlink="http://www.w3.org/1999/xlink">
<g id="graph0" class="graph" transform="scale(1 1) rotate(0) translate(4 2393.12)">
<title>HighLevelArchitecture</title>
<polygon fill="white" stroke="none" points="-4,4 -4,-2393.12 1010.5,-2393.12 1010.5,4 -4,4"/>
<g id="clust1" class="cluster">
<title>cluster_k8s_resources</title>
<polygon fill="lightgrey" stroke="lightgrey" points="8,-2110.62 8,-2381.12 264,-2381.12 264,-2110.62 8,-2110.62"/>
<text xml:space="preserve" text-anchor="middle" x="136" y="-2363.82" font-family="Times,serif" font-size="14.00">Kubernetes Resources</text>
</g>
<g id="clust2" class="cluster">
<title>cluster_controllers</title>
<polygon fill="#fff9c4" stroke="#fff9c4" points="219,-1445.37 219,-2053.12 571,-2053.12 571,-1445.37 219,-1445.37"/>
<text xml:space="preserve" text-anchor="middle" x="395" y="-2035.82" font-family="Times,serif" font-size="14.00">Controller Layer</text>
</g>
<g id="clust3" class="cluster">
<title>cluster_ssh</title>
<polygon fill="#ffe0b2" stroke="#ffe0b2" points="34,-670.87 34,-1255.87 312,-1255.87 312,-670.87 34,-670.87"/>
<text xml:space="preserve" text-anchor="middle" x="173" y="-1238.57" font-family="Times,serif" font-size="14.00">SSH Layer</text>
</g>
<g id="clust4" class="cluster">
<title>cluster_external</title>
<polygon fill="#f3e5f5" stroke="#f3e5f5" points="30,-8 30,-545.37 397,-545.37 397,-8 30,-8"/>
<text xml:space="preserve" text-anchor="middle" x="213.5" y="-528.07" font-family="Times,serif" font-size="14.00">External Systems</text>
</g>
<!-- resources -->
<g id="node1" class="node">
<title>resources</title>
<path fill="lightgrey" stroke="none" d="M244.12,-2348.62C244.12,-2348.62 27.87,-2348.62 27.87,-2348.62 21.87,-2348.62 15.88,-2342.62 15.88,-2336.62 15.88,-2336.62 15.88,-2130.62 15.88,-2130.62 15.88,-2124.62 21.88,-2118.62 27.88,-2118.62 27.88,-2118.62 244.12,-2118.62 244.12,-2118.62 250.12,-2118.62 256.12,-2124.62 256.12,-2130.62 256.12,-2130.62 256.12,-2336.62 256.12,-2336.62 256.12,-2342.62 250.12,-2348.62 244.12,-2348.62"/>
<polygon fill="#e1f5fe" stroke="none" points="23.88,-2302.62 23.88,-2344.62 248.12,-2344.62 248.12,-2302.62 23.88,-2302.62"/>
<polygon fill="none" stroke="black" points="23.88,-2302.62 23.88,-2344.62 248.12,-2344.62 248.12,-2302.62 23.88,-2302.62"/>
<text xml:space="preserve" text-anchor="start" x="95.5" y="-2325.22" font-family="Arial" font-weight="bold" font-size="12.00">GatewayClass</text>
<text xml:space="preserve" text-anchor="start" x="32.88" y="-2313.22" font-family="Arial" font-size="12.00">• proxy&#45;protocol / sni&#45;proxy annotations</text>
<polygon fill="#e1f5fe" stroke="none" points="23.88,-2248.62 23.88,-2302.62 248.12,-2302.62 248.12,-2248.62 23.88,-2248.62"/>
<polygon fill="none" stroke="black" points="23.88,-2248.62 23.88,-2302.62 248.12,-2302.62 248.12,-2248.62 23.88,-2248.62"/>
<text xml:space="preserve" text-anchor="start" x="111.62" y="-2283.22" font-family="Arial" font-weight="bold" font-size="12.00">Gateway</text>
<text xml:space="preserve" text-anchor="start" x="59.88" y="-2271.22" font-family="Arial" font-size="12.00">• Listeners (HTTP/TCP/TLS)</text>
<text xml:space="preserve" text-anchor="start" x="43.38" y="-2259.22" font-family="Arial" font-size="12.00">• listener&#45;proxy&#45;protocol annotation</text>
<polygon fill="#e1f5fe" stroke="none" points="23.88,-2206.62 23.88,-2248.62 248.12,-2248.62 248.12,-2206.62 23.88,-2206.62"/>
<polygon fill="none" stroke="black" points="23.88,-2206.62 23.88,-2248.62 248.12,-2248.62 248.12,-2206.62 23.88,-2206.62"/>
<text xml:space="preserve" text-anchor="start" x="102.62" y="-2229.22" font-family="Arial" font-weight="bold" font-size="12.00">HTTPRoute</text>
<text xml:space="preserve" text-anchor="start" x="46" y="-2217.22" font-family="Arial" font-size="12.00">• Hostname rules → plain session</text>
<polygon fill="#e1f5fe" stroke="none" points="23.88,-2164.62 23.88,-2206.62 248.12,-2206.62 248.12,-2164.62 23.88,-2164.62"/>
<polygon fill="none" stroke="black" points="23.88,-2164.62 23.88,-2206.62 248.12,-2206.62 248.12,-2164.62 23.88,-2164.62"/>
<text xml:space="preserve" text-anchor="start" x="106.38" y="-2187.22" font-family="Arial" font-weight="bold" font-size="12.00">TCPRoute</text>
<text xml:space="preserve" text-anchor="start" x="47.5" y="-2175.22" font-family="Arial" font-size="12.00">• Port rules → plain or pp session</text>
<polygon fill="#e1f5fe" stroke="none" points="23.88,-2122.62 23.88,-2164.62 248.12,-2164.62 248.12,-2122.62 23.88,-2122.62"/>
<polygon fill="none" stroke="black" points="23.88,-2122.62 23.88,-2164.62 248.12,-2164.62 248.12,-2122.62 23.88,-2122.62"/>
<text xml:space="preserve" text-anchor="start" x="76" y="-2145.22" font-family="Arial" font-weight="bold" font-size="12.00">TLSRoute (v1alpha2)</text>
<text xml:space="preserve" text-anchor="start" x="52.38" y="-2133.22" font-family="Arial" font-size="12.00">• SNI hostnames → sni session</text>
</g>
<!-- route_controllers -->
<g id="node2" class="node">
<title>route_controllers</title>
<path fill="lightgrey" stroke="none" d="M550.75,-2020.62C550.75,-2020.62 239.25,-2020.62 239.25,-2020.62 233.25,-2020.62 227.25,-2014.62 227.25,-2008.62 227.25,-2008.62 227.25,-1843.62 227.25,-1843.62 227.25,-1837.62 233.25,-1831.62 239.25,-1831.62 239.25,-1831.62 550.75,-1831.62 550.75,-1831.62 556.75,-1831.62 562.75,-1837.62 562.75,-1843.62 562.75,-1843.62 562.75,-2008.62 562.75,-2008.62 562.75,-2014.62 556.75,-2020.62 550.75,-2020.62"/>
<polygon fill="#90caf9" stroke="none" points="235.25,-1984.37 235.25,-2016.62 554.75,-2016.62 554.75,-1984.37 235.25,-1984.37"/>
<polygon fill="none" stroke="black" points="235.25,-1984.37 235.25,-2016.62 554.75,-2016.62 554.75,-1984.37 235.25,-1984.37"/>
<text xml:space="preserve" text-anchor="start" x="344.38" y="-1997.22" font-family="Arial" font-weight="bold" font-size="12.00">Route Controllers</text>
<polygon fill="#bbdefb" stroke="none" points="235.25,-1923.62 235.25,-1984.37 346.25,-1984.37 346.25,-1923.62 235.25,-1923.62"/>
<polygon fill="none" stroke="black" points="235.25,-1923.62 235.25,-1984.37 346.25,-1984.37 346.25,-1923.62 235.25,-1923.62"/>
<text xml:space="preserve" text-anchor="start" x="258.5" y="-1956.99" font-family="Arial" font-size="12.00">HTTPRoute</text>
<text xml:space="preserve" text-anchor="start" x="261.88" y="-1942.74" font-family="Arial" font-size="12.00">Reconciler</text>
<polygon fill="#bbdefb" stroke="none" points="346.25,-1923.62 346.25,-1984.37 450.5,-1984.37 450.5,-1923.62 346.25,-1923.62"/>
<polygon fill="none" stroke="black" points="346.25,-1923.62 346.25,-1984.37 450.5,-1984.37 450.5,-1923.62 346.25,-1923.62"/>
<text xml:space="preserve" text-anchor="start" x="369.88" y="-1956.99" font-family="Arial" font-size="12.00">TCPRoute</text>
<text xml:space="preserve" text-anchor="start" x="369.5" y="-1942.74" font-family="Arial" font-size="12.00">Reconciler</text>
<polygon fill="#bbdefb" stroke="none" points="450.5,-1923.62 450.5,-1984.37 554.75,-1984.37 554.75,-1923.62 450.5,-1923.62"/>
<polygon fill="none" stroke="black" points="450.5,-1923.62 450.5,-1984.37 554.75,-1984.37 554.75,-1923.62 450.5,-1923.62"/>
<text xml:space="preserve" text-anchor="start" x="475.25" y="-1964.12" font-family="Arial" font-size="12.00">TLSRoute</text>
<text xml:space="preserve" text-anchor="start" x="473.75" y="-1949.87" font-family="Arial" font-size="12.00">Reconciler</text>
<text xml:space="preserve" text-anchor="start" x="474.12" y="-1935.62" font-family="Arial" font-size="12.00">(v1alpha2)</text>
<polygon fill="none" stroke="black" points="235.25,-1835.62 235.25,-1923.62 554.75,-1923.62 554.75,-1835.62 235.25,-1835.62"/>
<text xml:space="preserve" text-anchor="start" x="355.62" y="-1906.12" font-family="Arial" font-weight="bold" font-size="10.00">Responsibilities:</text>
<text xml:space="preserve" text-anchor="start" x="318.5" y="-1896.12" font-family="Arial" font-size="10.00"> &#160;&#160;&#160;&#160;&#160;&#160;&#160;&#160;&#160;&#160;&#160;&#160;&#160;&#160;&#160;• Watch route resources</text>
<text xml:space="preserve" text-anchor="start" x="307.62" y="-1886.12" font-family="Arial" font-size="10.00"> &#160;&#160;&#160;&#160;&#160;&#160;&#160;&#160;&#160;&#160;&#160;&#160;&#160;&#160;&#160;• Periodic reconciliation (10s)</text>
<text xml:space="preserve" text-anchor="start" x="311.75" y="-1876.12" font-family="Arial" font-size="10.00"> &#160;&#160;&#160;&#160;&#160;&#160;&#160;&#160;&#160;&#160;&#160;&#160;&#160;&#160;&#160;• Validate forwardings exist</text>
<text xml:space="preserve" text-anchor="start" x="303.88" y="-1866.12" font-family="Arial" font-size="10.00"> &#160;&#160;&#160;&#160;&#160;&#160;&#160;&#160;&#160;&#160;&#160;&#160;&#160;&#160;&#160;• Call SetRoute/RemoveRoute</text>
<text xml:space="preserve" text-anchor="start" x="329.38" y="-1856.12" font-family="Arial" font-size="10.00"> &#160;&#160;&#160;&#160;&#160;&#160;&#160;&#160;&#160;&#160;&#160;&#160;&#160;&#160;&#160;• Fail fast on errors</text>
<text xml:space="preserve" text-anchor="start" x="244.25" y="-1846.12" font-family="Arial" font-size="10.00"> &#160;&#160;&#160;&#160;&#160;&#160;&#160;&#160;&#160;&#160;&#160;&#160;&#160;&#160;&#160;• Listener carries the SessionKind; routes don&#39;t compute it</text>
</g>
<!-- resources&#45;&gt;route_controllers -->
<g id="edge2" class="edge">
<title>resources&#45;&gt;route_controllers</title>
<path fill="none" stroke="#2196f3" stroke-width="2" stroke-dasharray="5,2" d="M241.69,-2118.68C241.69,-2118.68 241.69,-2033.38 241.69,-2033.38"/>
<polygon fill="#2196f3" stroke="#2196f3" stroke-width="2" points="245.19,-2033.38 241.69,-2023.38 238.19,-2033.38 245.19,-2033.38"/>
<text xml:space="preserve" text-anchor="middle" x="276.25" y="-2066.12" font-family="Arial" font-size="10.00"> &#160;watch events &#160;</text>
</g>
<!-- gateway_controller -->
<g id="node3" class="node">
<title>gateway_controller</title>
<path fill="lightgrey" stroke="none" d="M501.25,-1641.62C501.25,-1641.62 288.75,-1641.62 288.75,-1641.62 282.75,-1641.62 276.75,-1635.62 276.75,-1629.62 276.75,-1629.62 276.75,-1465.37 276.75,-1465.37 276.75,-1459.37 282.75,-1453.37 288.75,-1453.37 288.75,-1453.37 501.25,-1453.37 501.25,-1453.37 507.25,-1453.37 513.25,-1459.37 513.25,-1465.37 513.25,-1465.37 513.25,-1629.62 513.25,-1629.62 513.25,-1635.62 507.25,-1641.62 501.25,-1641.62"/>
<polygon fill="#a5d6a7" stroke="none" points="284.75,-1605.37 284.75,-1637.62 505.25,-1637.62 505.25,-1605.37 284.75,-1605.37"/>
<polygon fill="none" stroke="black" points="284.75,-1605.37 284.75,-1637.62 505.25,-1637.62 505.25,-1605.37 284.75,-1605.37"/>
<text xml:space="preserve" text-anchor="start" x="340.62" y="-1618.22" font-family="Arial" font-weight="bold" font-size="12.00">Gateway Controller</text>
<polygon fill="none" stroke="black" points="284.75,-1457.37 284.75,-1605.37 505.25,-1605.37 505.25,-1457.37 284.75,-1457.37"/>
<text xml:space="preserve" text-anchor="start" x="355.62" y="-1587.87" font-family="Arial" font-weight="bold" font-size="10.00">Responsibilities:</text>
<text xml:space="preserve" text-anchor="start" x="309.88" y="-1577.87" font-family="Arial" font-size="10.00"> &#160;&#160;&#160;&#160;&#160;&#160;&#160;&#160;&#160;&#160;&#160;&#160;&#160;&#160;&#160;• Watch Gateway resources</text>
<text xml:space="preserve" text-anchor="start" x="307.62" y="-1567.87" font-family="Arial" font-size="10.00"> &#160;&#160;&#160;&#160;&#160;&#160;&#160;&#160;&#160;&#160;&#160;&#160;&#160;&#160;&#160;• Periodic reconciliation (30s)</text>
<text xml:space="preserve" text-anchor="start" x="301.62" y="-1557.87" font-family="Arial" font-size="10.00"> &#160;&#160;&#160;&#160;&#160;&#160;&#160;&#160;&#160;&#160;&#160;&#160;&#160;&#160;&#160;• Check SSH connection health</text>
<text xml:space="preserve" text-anchor="start" x="312.12" y="-1547.87" font-family="Arial" font-size="10.00"> &#160;&#160;&#160;&#160;&#160;&#160;&#160;&#160;&#160;&#160;&#160;&#160;&#160;&#160;&#160;• Reconnect on disconnect</text>
<text xml:space="preserve" text-anchor="start" x="296.38" y="-1537.87" font-family="Arial" font-size="10.00"> &#160;&#160;&#160;&#160;&#160;&#160;&#160;&#160;&#160;&#160;&#160;&#160;&#160;&#160;&#160;• Provide gateway/listener registry</text>
<text xml:space="preserve" text-anchor="start" x="311.75" y="-1527.87" font-family="Arial" font-size="10.00"> &#160;&#160;&#160;&#160;&#160;&#160;&#160;&#160;&#160;&#160;&#160;&#160;&#160;&#160;&#160;• Provide validation helpers</text>
<text xml:space="preserve" text-anchor="start" x="335.75" y="-1507.87" font-family="Arial" font-size="10.00"> &#160;&#160;&#160;&#160;&#160;&#160;&#160;&#160;&#160;&#160;&#160;&#160;&#160;&#160;&#160;</text>
<text xml:space="preserve" text-anchor="start" x="383.75" y="-1507.87" font-family="Arial" font-weight="bold" font-size="10.00">Key Functions:</text>
<text xml:space="preserve" text-anchor="start" x="303.5" y="-1497.87" font-family="Arial" font-size="10.00"> &#160;&#160;&#160;&#160;&#160;&#160;&#160;&#160;&#160;&#160;&#160;&#160;&#160;&#160;&#160;• SetRoute() &#45; setup forwarding</text>
<text xml:space="preserve" text-anchor="start" x="308.75" y="-1487.87" font-family="Arial" font-size="10.00"> &#160;&#160;&#160;&#160;&#160;&#160;&#160;&#160;&#160;&#160;&#160;&#160;&#160;&#160;&#160;• RemoveRoute() &#45; teardown</text>
<text xml:space="preserve" text-anchor="start" x="305" y="-1477.87" font-family="Arial" font-size="10.00"> &#160;&#160;&#160;&#160;&#160;&#160;&#160;&#160;&#160;&#160;&#160;&#160;&#160;&#160;&#160;• isForwardingValid() &#45; validate</text>
<text xml:space="preserve" text-anchor="start" x="293.75" y="-1467.87" font-family="Arial" font-size="10.00"> &#160;&#160;&#160;&#160;&#160;&#160;&#160;&#160;&#160;&#160;&#160;&#160;&#160;&#160;&#160;• updateGatewayStatus() &#45; K8s API</text>
</g>
<!-- resources&#45;&gt;gateway_controller -->
<g id="edge3" class="edge">
<title>resources&#45;&gt;gateway_controller</title>
<path fill="none" stroke="#2196f3" stroke-width="2" stroke-dasharray="5,2" d="M134.81,-2118.69C134.81,-1923.23 134.81,-1547 134.81,-1547 134.81,-1547 264.06,-1547 264.06,-1547"/>
<polygon fill="#2196f3" stroke="#2196f3" stroke-width="2" points="264.06,-1550.5 274.06,-1547 264.06,-1543.5 264.06,-1550.5"/>
<text xml:space="preserve" text-anchor="middle" x="120.25" y="-1922.62" font-family="Arial" font-size="10.00"> &#160;watch events &#160;</text>
</g>
<!-- route_controllers&#45;&gt;gateway_controller -->
<g id="edge4" class="edge">
<title>route_controllers&#45;&gt;gateway_controller</title>
<path fill="none" stroke="#4caf50" stroke-width="2" d="M395,-1832.04C395,-1832.04 395,-1654.44 395,-1654.44"/>
<polygon fill="#4caf50" stroke="#4caf50" stroke-width="2" points="398.5,-1654.44 395,-1644.44 391.5,-1654.44 398.5,-1654.44"/>
<text xml:space="preserve" text-anchor="start" x="421" y="-1778.12" font-family="Arial" font-weight="bold" font-size="10.00">SetRoute()</text>
<text xml:space="preserve" text-anchor="start" x="397" y="-1760.87" font-family="Arial" font-size="10.00">• gateway/listener info</text>
<text xml:space="preserve" text-anchor="start" x="415.38" y="-1744.87" font-family="Arial" font-size="10.00">• route details</text>
<text xml:space="preserve" text-anchor="start" x="403" y="-1728.87" font-family="Arial" font-size="10.00">• backend host:port</text>
<text xml:space="preserve" text-anchor="start" x="409.38" y="-1704.12" font-family="Arial" font-weight="bold" font-size="10.00">RemoveRoute()</text>
<text xml:space="preserve" text-anchor="start" x="401.12" y="-1688.87" font-family="Arial" font-size="10.00">• cleanup forwarding</text>
</g>
<!-- ssh_pool -->
<g id="node4" class="node">
<title>ssh_pool</title>
<path fill="lightgrey" stroke="none" d="M291.62,-1223.37C291.62,-1223.37 54.37,-1223.37 54.37,-1223.37 48.38,-1223.37 42.38,-1217.37 42.38,-1211.37 42.38,-1211.37 42.38,-1057.12 42.38,-1057.12 42.38,-1051.12 48.38,-1045.12 54.38,-1045.12 54.38,-1045.12 291.62,-1045.12 291.62,-1045.12 297.62,-1045.12 303.62,-1051.12 303.62,-1057.12 303.62,-1057.12 303.62,-1211.37 303.62,-1211.37 303.62,-1217.37 297.62,-1223.37 291.62,-1223.37"/>
<polygon fill="#ffb74d" stroke="none" points="50.38,-1187.12 50.38,-1219.37 295.62,-1219.37 295.62,-1187.12 50.38,-1187.12"/>
<polygon fill="none" stroke="black" points="50.38,-1187.12 50.38,-1219.37 295.62,-1219.37 295.62,-1187.12 50.38,-1187.12"/>
<text xml:space="preserve" text-anchor="start" x="120.88" y="-1199.97" font-family="Arial" font-weight="bold" font-size="12.00">SSH Session Pool</text>
<polygon fill="none" stroke="black" points="50.38,-1049.12 50.38,-1187.12 295.62,-1187.12 295.62,-1049.12 50.38,-1049.12"/>
<text xml:space="preserve" text-anchor="start" x="133.62" y="-1169.62" font-family="Arial" font-weight="bold" font-size="10.00">Responsibilities:</text>
<text xml:space="preserve" text-anchor="start" x="68.38" y="-1159.62" font-family="Arial" font-size="10.00"> &#160;&#160;&#160;&#160;&#160;&#160;&#160;&#160;&#160;&#160;&#160;&#160;&#160;&#160;&#160;• Hold up to 3 SSH Tunnel Managers</text>
<text xml:space="preserve" text-anchor="start" x="63.88" y="-1149.62" font-family="Arial" font-size="10.00"> &#160;&#160;&#160;&#160;&#160;&#160;&#160;&#160;&#160;&#160;&#160;&#160;&#160;&#160;&#160;• Open/close PP and SNI sessions per</text>
<text xml:space="preserve" text-anchor="start" x="111.12" y="-1139.62" font-family="Arial" font-size="10.00">  GatewayClass annotations</text>
<text xml:space="preserve" text-anchor="start" x="59.38" y="-1129.62" font-family="Arial" font-size="10.00"> &#160;&#160;&#160;&#160;&#160;&#160;&#160;&#160;&#160;&#160;&#160;&#160;&#160;&#160;&#160;• Route StartForwarding/StopForwarding/</text>
<text xml:space="preserve" text-anchor="start" x="89.38" y="-1119.62" font-family="Arial" font-size="10.00">  GetAssignedAddresses/IsConnected</text>
<text xml:space="preserve" text-anchor="start" x="135.88" y="-1109.62" font-family="Arial" font-size="10.00">  by SessionKind</text>
<text xml:space="preserve" text-anchor="start" x="117.5" y="-1089.62" font-family="Arial" font-size="10.00"> &#160;&#160;&#160;&#160;&#160;&#160;&#160;&#160;&#160;&#160;&#160;&#160;&#160;&#160;&#160;</text>
<text xml:space="preserve" text-anchor="start" x="165.5" y="-1089.62" font-family="Arial" font-weight="bold" font-size="10.00">SessionKind:</text>
<text xml:space="preserve" text-anchor="start" x="85.25" y="-1079.62" font-family="Arial" font-size="10.00"> &#160;&#160;&#160;&#160;&#160;&#160;&#160;&#160;&#160;&#160;&#160;&#160;&#160;&#160;&#160;• SessionPlain (always open)</text>
<text xml:space="preserve" text-anchor="start" x="61.62" y="-1069.62" font-family="Arial" font-size="10.00"> &#160;&#160;&#160;&#160;&#160;&#160;&#160;&#160;&#160;&#160;&#160;&#160;&#160;&#160;&#160;• SessionProxyProto (proxy&#45;protocol=N)</text>
<text xml:space="preserve" text-anchor="start" x="71" y="-1059.62" font-family="Arial" font-size="10.00"> &#160;&#160;&#160;&#160;&#160;&#160;&#160;&#160;&#160;&#160;&#160;&#160;&#160;&#160;&#160;• SessionSNIProxy (sni&#45;proxy=true)</text>
</g>
<!-- gateway_controller&#45;&gt;ssh_pool -->
<g id="edge5" class="edge">
<title>gateway_controller&#45;&gt;ssh_pool</title>
<path fill="none" stroke="#ff9800" stroke-width="2" d="M290.19,-1453.46C290.19,-1453.46 290.19,-1236.31 290.19,-1236.31"/>
<polygon fill="#ff9800" stroke="#ff9800" stroke-width="2" points="293.69,-1236.31 290.19,-1226.31 286.69,-1236.31 293.69,-1236.31"/>
<text xml:space="preserve" text-anchor="start" x="219.38" y="-1399.87" font-family="Arial" font-weight="bold" font-size="10.00">Session Management:</text>
<text xml:space="preserve" text-anchor="start" x="208.5" y="-1382.62" font-family="Arial" font-size="10.00">• ConfigureSessions(pp, sni)</text>
<text xml:space="preserve" text-anchor="start" x="227.62" y="-1366.62" font-family="Arial" font-size="10.00">• IsConnected(kind)</text>
<text xml:space="preserve" text-anchor="start" x="192" y="-1341.87" font-family="Arial" font-weight="bold" font-size="10.00">Forwarding Operations (per kind):</text>
<text xml:space="preserve" text-anchor="start" x="213.38" y="-1326.62" font-family="Arial" font-size="10.00">• StartForwarding(kind, ...)</text>
<text xml:space="preserve" text-anchor="start" x="213.75" y="-1310.62" font-family="Arial" font-size="10.00">• StopForwarding(kind, ...)</text>
<text xml:space="preserve" text-anchor="start" x="246" y="-1285.87" font-family="Arial" font-weight="bold" font-size="10.00">Validation:</text>
<text xml:space="preserve" text-anchor="start" x="196.5" y="-1270.62" font-family="Arial" font-size="10.00">• GetAssignedAddresses(kind, ...)</text>
</g>
<!-- k8s_api -->
<g id="node9" class="node">
<title>k8s_api</title>
<ellipse fill="#ffebee" stroke="black" cx="446" cy="-1134.24" rx="70.71" ry="25.81"/>
<text xml:space="preserve" text-anchor="middle" x="446" y="-1137.09" font-family="Arial" font-size="12.00">Kubernetes API</text>
<text xml:space="preserve" text-anchor="middle" x="446" y="-1122.84" font-family="Arial" font-size="12.00">Server</text>
</g>
<!-- gateway_controller&#45;&gt;k8s_api -->
<g id="edge10" class="edge">
<title>gateway_controller&#45;&gt;k8s_api</title>
<path fill="none" stroke="#2196f3" stroke-width="2" stroke-dasharray="1,5" d="M444.27,-1453.46C444.27,-1453.46 444.27,-1173.17 444.27,-1173.17"/>
<polygon fill="#2196f3" stroke="#2196f3" stroke-width="2" points="447.77,-1173.17 444.27,-1163.17 440.77,-1173.17 447.77,-1173.17"/>
<text xml:space="preserve" text-anchor="middle" x="489.5" y="-1340.87" font-family="Arial" font-size="10.00"> &#160;update Gateway</text>
<text xml:space="preserve" text-anchor="middle" x="489.5" y="-1328.87" font-family="Arial" font-size="10.00"> &#160;status/addresses &#160;</text>
</g>
<!-- ssh_manager -->
<g id="node5" class="node">
<title>ssh_manager</title>
<path fill="lightgrey" stroke="none" d="M288.25,-947.12C288.25,-947.12 57.75,-947.12 57.75,-947.12 51.75,-947.12 45.75,-941.12 45.75,-935.12 45.75,-935.12 45.75,-690.87 45.75,-690.87 45.75,-684.87 51.75,-678.87 57.75,-678.87 57.75,-678.87 288.25,-678.87 288.25,-678.87 294.25,-678.87 300.25,-684.87 300.25,-690.87 300.25,-690.87 300.25,-935.12 300.25,-935.12 300.25,-941.12 294.25,-947.12 288.25,-947.12"/>
<polygon fill="#ffcc80" stroke="none" points="53.75,-910.87 53.75,-943.12 292.25,-943.12 292.25,-910.87 53.75,-910.87"/>
<polygon fill="none" stroke="black" points="53.75,-910.87 53.75,-943.12 292.25,-943.12 292.25,-910.87 53.75,-910.87"/>
<text xml:space="preserve" text-anchor="start" x="74.38" y="-923.72" font-family="Arial" font-weight="bold" font-size="12.00">SSH Tunnel Manager (per session)</text>
<polygon fill="none" stroke="black" points="53.75,-682.87 53.75,-910.87 292.25,-910.87 292.25,-682.87 53.75,-682.87"/>
<text xml:space="preserve" text-anchor="start" x="133.62" y="-893.37" font-family="Arial" font-weight="bold" font-size="10.00">Responsibilities:</text>
<text xml:space="preserve" text-anchor="start" x="65.75" y="-883.37" font-family="Arial" font-size="10.00"> &#160;&#160;&#160;&#160;&#160;&#160;&#160;&#160;&#160;&#160;&#160;&#160;&#160;&#160;&#160;• Establish/close one SSH connection</text>
<text xml:space="preserve" text-anchor="start" x="75.88" y="-873.37" font-family="Arial" font-size="10.00"> &#160;&#160;&#160;&#160;&#160;&#160;&#160;&#160;&#160;&#160;&#160;&#160;&#160;&#160;&#160;• Send keepalives, detect failures</text>
<text xml:space="preserve" text-anchor="start" x="65.75" y="-863.37" font-family="Arial" font-size="10.00"> &#160;&#160;&#160;&#160;&#160;&#160;&#160;&#160;&#160;&#160;&#160;&#160;&#160;&#160;&#160;• Start/stop forwardings on its session</text>
<text xml:space="preserve" text-anchor="start" x="85.25" y="-853.37" font-family="Arial" font-size="10.00"> &#160;&#160;&#160;&#160;&#160;&#160;&#160;&#160;&#160;&#160;&#160;&#160;&#160;&#160;&#160;• Validate hostname matches</text>
<text xml:space="preserve" text-anchor="start" x="101.75" y="-843.37" font-family="Arial" font-size="10.00"> &#160;&#160;&#160;&#160;&#160;&#160;&#160;&#160;&#160;&#160;&#160;&#160;&#160;&#160;&#160;• Maintain clean state</text>
<text xml:space="preserve" text-anchor="start" x="91.25" y="-833.37" font-family="Arial" font-size="10.00"> &#160;&#160;&#160;&#160;&#160;&#160;&#160;&#160;&#160;&#160;&#160;&#160;&#160;&#160;&#160;• Proxy traffic to backends</text>
<text xml:space="preserve" text-anchor="start" x="107.38" y="-823.37" font-family="Arial" font-size="10.00"> &#160;&#160;&#160;&#160;&#160;&#160;&#160;&#160;&#160;&#160;&#160;&#160;&#160;&#160;&#160;• Fail fast on errors</text>
<text xml:space="preserve" text-anchor="start" x="68.75" y="-813.37" font-family="Arial" font-size="10.00"> &#160;&#160;&#160;&#160;&#160;&#160;&#160;&#160;&#160;&#160;&#160;&#160;&#160;&#160;&#160;• Does NOT reconnect automatically</text>
<text xml:space="preserve" text-anchor="start" x="113.75" y="-793.37" font-family="Arial" font-size="10.00"> &#160;&#160;&#160;&#160;&#160;&#160;&#160;&#160;&#160;&#160;&#160;&#160;&#160;&#160;&#160;</text>
<text xml:space="preserve" text-anchor="start" x="161.75" y="-793.37" font-family="Arial" font-weight="bold" font-size="10.00">Key Functions:</text>
<text xml:space="preserve" text-anchor="start" x="98" y="-783.37" font-family="Arial" font-size="10.00"> &#160;&#160;&#160;&#160;&#160;&#160;&#160;&#160;&#160;&#160;&#160;&#160;&#160;&#160;&#160;• Connect/IsConnected</text>
<text xml:space="preserve" text-anchor="start" x="75.5" y="-773.37" font-family="Arial" font-size="10.00"> &#160;&#160;&#160;&#160;&#160;&#160;&#160;&#160;&#160;&#160;&#160;&#160;&#160;&#160;&#160;• StartForwarding/StopForwarding</text>
<text xml:space="preserve" text-anchor="start" x="75.5" y="-763.37" font-family="Arial" font-size="10.00"> &#160;&#160;&#160;&#160;&#160;&#160;&#160;&#160;&#160;&#160;&#160;&#160;&#160;&#160;&#160;• GetAssignedAddresses (RLock)</text>
<text xml:space="preserve" text-anchor="start" x="80.75" y="-753.37" font-family="Arial" font-size="10.00"> &#160;&#160;&#160;&#160;&#160;&#160;&#160;&#160;&#160;&#160;&#160;&#160;&#160;&#160;&#160;• handleChannels (traffic proxy)</text>
<text xml:space="preserve" text-anchor="start" x="69.12" y="-743.37" font-family="Arial" font-size="10.00"> &#160;&#160;&#160;&#160;&#160;&#160;&#160;&#160;&#160;&#160;&#160;&#160;&#160;&#160;&#160;• monitorConnection (keepalive only)</text>
<text xml:space="preserve" text-anchor="start" x="90.12" y="-723.37" font-family="Arial" font-size="10.00"> &#160;&#160;&#160;&#160;&#160;&#160;&#160;&#160;&#160;&#160;&#160;&#160;&#160;&#160;&#160;</text>
<text xml:space="preserve" text-anchor="start" x="138.12" y="-723.37" font-family="Arial" font-weight="bold" font-size="10.00">State (always consistent):</text>
<text xml:space="preserve" text-anchor="start" x="109.62" y="-713.37" font-family="Arial" font-size="10.00"> &#160;&#160;&#160;&#160;&#160;&#160;&#160;&#160;&#160;&#160;&#160;&#160;&#160;&#160;&#160;• forwardings map</text>
<text xml:space="preserve" text-anchor="start" x="102.5" y="-703.37" font-family="Arial" font-size="10.00"> &#160;&#160;&#160;&#160;&#160;&#160;&#160;&#160;&#160;&#160;&#160;&#160;&#160;&#160;&#160;• assignedAddrs map</text>
<text xml:space="preserve" text-anchor="start" x="62.75" y="-693.37" font-family="Arial" font-size="10.00"> &#160;&#160;&#160;&#160;&#160;&#160;&#160;&#160;&#160;&#160;&#160;&#160;&#160;&#160;&#160;• session label baked into every log line</text>
</g>
<!-- ssh_pool&#45;&gt;ssh_manager -->
<g id="edge1" class="edge">
<title>ssh_pool&#45;&gt;ssh_manager</title>
<path fill="none" stroke="black" stroke-dasharray="1,5" d="M173,-1045.18C173,-1045.18 173,-958.59 173,-958.59"/>
<polygon fill="black" stroke="black" points="176.5,-958.59 173,-948.59 169.5,-958.59 176.5,-958.59"/>
<text xml:space="preserve" text-anchor="middle" x="187.25" y="-992.62" font-family="Arial" font-size="10.00"> &#160;1..3 &#160;</text>
</g>
<!-- ssh_server -->
<g id="node6" class="node">
<title>ssh_server</title>
<path fill="#e1bee7" stroke="black" d="M177.5,-512.87C177.5,-512.87 50.5,-512.87 50.5,-512.87 44.5,-512.87 38.5,-506.87 38.5,-500.87 38.5,-500.87 38.5,-431.62 38.5,-431.62 38.5,-425.62 44.5,-419.62 50.5,-419.62 50.5,-419.62 177.5,-419.62 177.5,-419.62 183.5,-419.62 189.5,-425.62 189.5,-431.62 189.5,-431.62 189.5,-500.87 189.5,-500.87 189.5,-506.87 183.5,-512.87 177.5,-512.87"/>
<text xml:space="preserve" text-anchor="middle" x="114" y="-497.47" font-family="Arial" font-size="12.00">SSH Server</text>
<text xml:space="preserve" text-anchor="middle" x="114" y="-483.22" font-family="Arial" font-size="12.00">(pico.sh / tuns.sh)</text>
<text xml:space="preserve" text-anchor="middle" x="114" y="-454.97" font-family="Arial" font-size="12.00">• Reverse port forwarding</text>
<text xml:space="preserve" text-anchor="middle" x="114" y="-440.72" font-family="Arial" font-size="12.00">• Hostname assignment</text>
<text xml:space="preserve" text-anchor="middle" x="114" y="-426.47" font-family="Arial" font-size="12.00">• Public endpoint</text>
</g>
<!-- ssh_manager&#45;&gt;ssh_server -->
<g id="edge6" class="edge">
<title>ssh_manager&#45;&gt;ssh_server</title>
<path fill="none" stroke="#f44336" stroke-width="2" d="M117.62,-665.9C117.62,-665.9 117.62,-526.12 117.62,-526.12"/>
<polygon fill="#f44336" stroke="#f44336" stroke-width="2" points="114.13,-665.9 117.63,-675.9 121.13,-665.9 114.13,-665.9"/>
<polygon fill="#f44336" stroke="#f44336" stroke-width="2" points="121.13,-526.12 117.63,-516.12 114.13,-526.12 121.13,-526.12"/>
<text xml:space="preserve" text-anchor="start" x="115.5" y="-625.37" font-family="Arial" font-weight="bold" font-size="10.00">SSH Protocol (per session):</text>
<text xml:space="preserve" text-anchor="start" x="108" y="-608.12" font-family="Arial" font-size="10.00">• 1 session per kind (plain/pp/sni)</text>
<text xml:space="preserve" text-anchor="start" x="131.25" y="-592.12" font-family="Arial" font-size="10.00">• tcpip&#45;forward request</text>
<text xml:space="preserve" text-anchor="start" x="133.12" y="-576.12" font-family="Arial" font-size="10.00">• cancel&#45;tcpip&#45;forward</text>
<text xml:space="preserve" text-anchor="start" x="122.62" y="-560.12" font-family="Arial" font-size="10.00">• forwarded&#45;tcpip channels</text>
</g>
<!-- backends -->
<g id="node7" class="node">
<title>backends</title>
<path fill="#e1bee7" stroke="black" d="M376.5,-505.74C376.5,-505.74 273.5,-505.74 273.5,-505.74 267.5,-505.74 261.5,-499.74 261.5,-493.74 261.5,-493.74 261.5,-438.74 261.5,-438.74 261.5,-432.74 267.5,-426.74 273.5,-426.74 273.5,-426.74 376.5,-426.74 376.5,-426.74 382.5,-426.74 388.5,-432.74 388.5,-438.74 388.5,-438.74 388.5,-493.74 388.5,-493.74 388.5,-499.74 382.5,-505.74 376.5,-505.74"/>
<text xml:space="preserve" text-anchor="middle" x="325" y="-490.34" font-family="Arial" font-size="12.00">Kubernetes Services</text>
<text xml:space="preserve" text-anchor="middle" x="325" y="-476.09" font-family="Arial" font-size="12.00">(Backends)</text>
<text xml:space="preserve" text-anchor="middle" x="325" y="-447.84" font-family="Arial" font-size="12.00">• ClusterIP services</text>
<text xml:space="preserve" text-anchor="middle" x="325" y="-433.59" font-family="Arial" font-size="12.00">• Internal endpoints</text>
</g>
<!-- ssh_manager&#45;&gt;backends -->
<g id="edge7" class="edge">
<title>ssh_manager&#45;&gt;backends</title>
<path fill="none" stroke="#4caf50" stroke-width="2" d="M280.88,-678.93C280.88,-678.93 280.88,-519.26 280.88,-519.26"/>
<polygon fill="#4caf50" stroke="#4caf50" stroke-width="2" points="284.38,-519.26 280.88,-509.26 277.38,-519.26 284.38,-519.26"/>
<text xml:space="preserve" text-anchor="middle" x="374.38" y="-598.37" font-family="Arial" font-size="10.00"> &#160;proxy traffic</text>
<text xml:space="preserve" text-anchor="middle" x="374.38" y="-586.37" font-family="Arial" font-size="10.00"> &#160;(forwarded&#45;tcpip) &#160;</text>
</g>
<!-- internet -->
<g id="node8" class="node">
<title>internet</title>
<ellipse fill="#e1bee7" stroke="black" cx="179" cy="-41.81" rx="39.42" ry="25.81"/>
<text xml:space="preserve" text-anchor="middle" x="179" y="-44.66" font-family="Arial" font-size="12.00">Internet</text>
<text xml:space="preserve" text-anchor="middle" x="179" y="-30.41" font-family="Arial" font-size="12.00">Clients</text>
</g>
<!-- ssh_server&#45;&gt;internet -->
<g id="edge9" class="edge">
<title>ssh_server&#45;&gt;internet</title>
<path fill="none" stroke="#9c27b0" stroke-width="2" stroke-dasharray="5,2" d="M156.22,-419.2C156.22,-419.2 156.22,-76.34 156.22,-76.34"/>
<polygon fill="#9c27b0" stroke="#9c27b0" stroke-width="2" points="159.72,-76.34 156.22,-66.34 152.72,-76.34 159.72,-76.34"/>
<text xml:space="preserve" text-anchor="middle" x="140.5" y="-240.12" font-family="Arial" font-size="10.00"> &#160;responses &#160;</text>
</g>
<!-- internet&#45;&gt;ssh_server -->
<g id="edge8" class="edge">
<title>internet&#45;&gt;ssh_server</title>
<path fill="none" stroke="#9c27b0" stroke-width="2" d="M172.86,-67.72C172.86,-67.72 172.86,-406.36 172.86,-406.36"/>
<polygon fill="#9c27b0" stroke="#9c27b0" stroke-width="2" points="169.36,-406.36 172.86,-416.36 176.36,-406.36 169.36,-406.36"/>
<text xml:space="preserve" text-anchor="middle" x="273.75" y="-246.12" font-family="Arial" font-size="10.00"> &#160;HTTP/TCP</text>
<text xml:space="preserve" text-anchor="middle" x="273.75" y="-234.12" font-family="Arial" font-size="10.00"> &#160;requests &#160;</text>
</g>
<!-- periodic_routes -->
<g id="node10" class="node">
<title>periodic_routes</title>
<polygon fill="#ffffcc" stroke="black" points="431.88,-2251.62 352.12,-2251.62 352.12,-2215.62 437.88,-2215.62 437.88,-2245.62 431.88,-2251.62"/>
<polyline fill="none" stroke="black" points="431.88,-2251.62 431.88,-2245.62"/>
<polyline fill="none" stroke="black" points="437.88,-2245.62 431.88,-2245.62"/>
<text xml:space="preserve" text-anchor="middle" x="395" y="-2229.34" font-family="Arial" font-size="12.00">Periodic: 10s</text>
</g>
<!-- periodic_routes&#45;&gt;route_controllers -->
<g id="edge11" class="edge">
<title>periodic_routes&#45;&gt;route_controllers</title>
<polygon fill="black" stroke="black" points="398.5,-2032.08 395,-2022.08 391.5,-2032.08 398.5,-2032.08"/>
</g>
<!-- periodic_gateway -->
<g id="node11" class="node">
<title>periodic_gateway</title>
<polygon fill="#ffffcc" stroke="black" points="714.88,-1944.12 635.12,-1944.12 635.12,-1908.12 720.88,-1908.12 720.88,-1938.12 714.88,-1944.12"/>
<polyline fill="none" stroke="black" points="714.88,-1944.12 714.88,-1938.12"/>
<polyline fill="none" stroke="black" points="720.88,-1938.12 714.88,-1938.12"/>
<text xml:space="preserve" text-anchor="middle" x="678" y="-1921.84" font-family="Arial" font-size="12.00">Periodic: 30s</text>
</g>
<!-- periodic_gateway&#45;&gt;gateway_controller -->
<g id="edge12" class="edge">
<title>periodic_gateway&#45;&gt;gateway_controller</title>
<polygon fill="black" stroke="black" points="524.48,-1543.5 514.48,-1547 524.48,-1550.5 524.48,-1543.5"/>
</g>
<!-- principles -->
<g id="node12" class="node">
<title>principles</title>
<path fill="lightgrey" stroke="none" d="M994.5,-376.62C994.5,-376.62 417.5,-376.62 417.5,-376.62 411.5,-376.62 405.5,-370.62 405.5,-364.62 405.5,-364.62 405.5,-122.62 405.5,-122.62 405.5,-116.62 411.5,-110.62 417.5,-110.62 417.5,-110.62 994.5,-110.62 994.5,-110.62 1000.5,-110.62 1006.5,-116.62 1006.5,-122.62 1006.5,-122.62 1006.5,-364.62 1006.5,-364.62 1006.5,-370.62 1000.5,-376.62 994.5,-376.62"/>
<polygon fill="#c8e6c9" stroke="none" points="413.5,-340.37 413.5,-372.62 998.5,-372.62 998.5,-340.37 413.5,-340.37"/>
<polygon fill="none" stroke="black" points="413.5,-340.37 413.5,-372.62 998.5,-372.62 998.5,-340.37 413.5,-340.37"/>
<text xml:space="preserve" text-anchor="start" x="640.75" y="-353.22" font-family="Arial" font-weight="bold" font-size="12.00">Architecture Principles</text>
<polygon fill="none" stroke="black" points="413.5,-308.12 413.5,-340.37 567.25,-340.37 567.25,-308.12 413.5,-308.12"/>
<text xml:space="preserve" text-anchor="start" x="422.5" y="-320.97" font-family="Arial" font-weight="bold" font-size="12.00">Separation of Concerns</text>
<polygon fill="none" stroke="black" points="567.25,-308.12 567.25,-340.37 998.5,-340.37 998.5,-308.12 567.25,-308.12"/>
<text xml:space="preserve" text-anchor="start" x="576.25" y="-320.12" font-family="Arial" font-size="12.00">Gateway owns connection, Routes own forwardings, SSH manages primitives</text>
<polygon fill="none" stroke="black" points="413.5,-275.87 413.5,-308.12 567.25,-308.12 567.25,-275.87 413.5,-275.87"/>
<text xml:space="preserve" text-anchor="start" x="466.38" y="-288.72" font-family="Arial" font-weight="bold" font-size="12.00">Fail Fast</text>
<polygon fill="none" stroke="black" points="567.25,-275.87 567.25,-308.12 998.5,-308.12 998.5,-275.87 567.25,-275.87"/>
<text xml:space="preserve" text-anchor="start" x="596.88" y="-287.87" font-family="Arial" font-size="12.00">Synchronous validation, return errors immediately, let Kubernetes retry</text>
<polygon fill="none" stroke="black" points="413.5,-243.62 413.5,-275.87 567.25,-275.87 567.25,-243.62 413.5,-243.62"/>
<text xml:space="preserve" text-anchor="start" x="426.62" y="-256.47" font-family="Arial" font-weight="bold" font-size="12.00">Single Source of Truth</text>
<polygon fill="none" stroke="black" points="567.25,-243.62 567.25,-275.87 998.5,-275.87 998.5,-243.62 567.25,-243.62"/>
<text xml:space="preserve" text-anchor="start" x="586.38" y="-255.62" font-family="Arial" font-size="12.00">SSH Manager maintains authoritative state (forwardings + assignedAddrs)</text>
<polygon fill="none" stroke="black" points="413.5,-211.37 413.5,-243.62 567.25,-243.62 567.25,-211.37 413.5,-211.37"/>
<text xml:space="preserve" text-anchor="start" x="424.38" y="-224.22" font-family="Arial" font-weight="bold" font-size="12.00">Periodic Reconciliation</text>
<polygon fill="none" stroke="black" points="567.25,-211.37 567.25,-243.62 998.5,-243.62 998.5,-211.37 567.25,-211.37"/>
<text xml:space="preserve" text-anchor="start" x="601" y="-223.37" font-family="Arial" font-size="12.00">Routes (10s) validate forwardings, Gateway (30s) checks connection</text>
<polygon fill="none" stroke="black" points="413.5,-179.12 413.5,-211.37 567.25,-211.37 567.25,-179.12 413.5,-179.12"/>
<text xml:space="preserve" text-anchor="start" x="431.5" y="-191.97" font-family="Arial" font-weight="bold" font-size="12.00">Hostname Validation</text>
<polygon fill="none" stroke="black" points="567.25,-179.12 567.25,-211.37 998.5,-211.37 998.5,-179.12 567.25,-179.12"/>
<text xml:space="preserve" text-anchor="start" x="581.88" y="-191.12" font-family="Arial" font-size="12.00">SSH Manager validates assigned hostname matches request (fails if wrong)</text>
<polygon fill="none" stroke="black" points="413.5,-146.87 413.5,-179.12 567.25,-179.12 567.25,-146.87 413.5,-146.87"/>
<text xml:space="preserve" text-anchor="start" x="438.25" y="-159.72" font-family="Arial" font-weight="bold" font-size="12.00">State Consistency</text>
<polygon fill="none" stroke="black" points="567.25,-146.87 567.25,-179.12 998.5,-179.12 998.5,-146.87 567.25,-146.87"/>
<text xml:space="preserve" text-anchor="start" x="632.12" y="-158.87" font-family="Arial" font-size="12.00">forwardings and assignedAddrs always cleaned together</text>
<polygon fill="none" stroke="black" points="413.5,-114.62 413.5,-146.87 567.25,-146.87 567.25,-114.62 413.5,-114.62"/>
<text xml:space="preserve" text-anchor="start" x="437.88" y="-127.47" font-family="Arial" font-weight="bold" font-size="12.00">Concurrent Reads</text>
<polygon fill="none" stroke="black" points="567.25,-114.62 567.25,-146.87 998.5,-146.87 998.5,-114.62 567.25,-114.62"/>
<text xml:space="preserve" text-anchor="start" x="616.38" y="-126.62" font-family="Arial" font-size="12.00">GetAssignedAddresses uses RWMutex.RLock for performance</text>
</g>
</g>
</svg>
