<?xml version="1.0" encoding="UTF-8" standalone="no"?>
<!DOCTYPE svg PUBLIC "-//W3C//DTD SVG 1.1//EN"
 "http://www.w3.org/Graphics/SVG/1.1/DTD/svg11.dtd">
<!-- Generated by graphviz version 15.0.0 (20260523.1842)
 -->
<!-- Title: SimplifiedArchitecture Pages: 1 -->
<svg width="2123pt" height="752pt"
 viewBox="0.00 0.00 2123.00 752.00" xmlns="http://www.w3.org/2000/svg" xmlns:xlink="http://www.w3.org/1999/xlink">
<g id="graph0" class="graph" transform="scale(1 1) rotate(0) translate(4 747.5)">
<title>SimplifiedArchitecture</title>
<polygon fill="white" stroke="none" points="-4,4 -4,-747.5 2119,-747.5 2119,4 -4,4"/>
<g id="clust1" class="cluster">
<title>cluster_controllers</title>
<polygon fill="#e8f5e9" stroke="#e8f5e9" points="8,-8 8,-288.25 816,-288.25 816,-8 8,-8"/>
<text xml:space="preserve" text-anchor="middle" x="412" y="-270.95" font-family="Times,serif" font-size="14.00">Controllers</text>
</g>
<g id="clust2" class="cluster">
<title>cluster_ssh</title>
<polygon fill="#ffe0b2" stroke="#ffe0b2" points="588,-492.25 588,-735.5 1049,-735.5 1049,-492.25 588,-492.25"/>
<text xml:space="preserve" text-anchor="middle" x="818.5" y="-718.2" font-family="Times,serif" font-size="14.00">SSH Layer</text>
</g>
<g id="clust3" class="cluster">
<title>cluster_external</title>
<polygon fill="#f3e5f5" stroke="#f3e5f5" points="628,-352.88 628,-444.12 1167,-444.12 1167,-352.88 628,-352.88"/>
<text xml:space="preserve" text-anchor="middle" x="897.5" y="-426.82" font-family="Times,serif" font-size="14.00">External Systems</text>
</g>
<g id="clust4" class="cluster">
<title>cluster_flow1</title>
<path fill="#e3f2fd" stroke="#e3f2fd" stroke-width="2" d="M1560,-29.25C1560,-29.25 1688,-29.25 1688,-29.25 1694,-29.25 1700,-35.25 1700,-41.25 1700,-41.25 1700,-702 1700,-702 1700,-708 1694,-714 1688,-714 1688,-714 1560,-714 1560,-714 1554,-714 1548,-708 1548,-702 1548,-702 1548,-41.25 1548,-41.25 1548,-35.25 1554,-29.25 1560,-29.25"/>
<text xml:space="preserve" text-anchor="middle" x="1624" y="-696.7" font-family="Times,serif" font-size="14.00">Flow 1: Route Creation</text>
</g>
<g id="clust5" class="cluster">
<title>cluster_flow2</title>
<path fill="#fff3e0" stroke="#fff3e0" stroke-width="2" d="M1754,-29.25C1754,-29.25 1895,-29.25 1895,-29.25 1901,-29.25 1907,-35.25 1907,-41.25 1907,-41.25 1907,-702.25 1907,-702.25 1907,-708.25 1901,-714.25 1895,-714.25 1895,-714.25 1754,-714.25 1754,-714.25 1748,-714.25 1742,-708.25 1742,-702.25 1742,-702.25 1742,-41.25 1742,-41.25 1742,-35.25 1748,-29.25 1754,-29.25"/>
<text xml:space="preserve" text-anchor="middle" x="1824.5" y="-696.95" font-family="Times,serif" font-size="14.00">Flow 2: SSH Reconnection</text>
</g>
<g id="clust6" class="cluster">
<title>cluster_flow3</title>
<path fill="#ffebee" stroke="#ffebee" stroke-width="2" d="M1967,-29.25C1967,-29.25 2095,-29.25 2095,-29.25 2101,-29.25 2107,-35.25 2107,-41.25 2107,-41.25 2107,-702 2107,-702 2107,-708 2101,-714 2095,-714 2095,-714 1967,-714 1967,-714 1961,-714 1955,-708 1955,-702 1955,-702 1955,-41.25 1955,-41.25 1955,-35.25 1961,-29.25 1967,-29.25"/>
<text xml:space="preserve" text-anchor="middle" x="2031" y="-696.7" font-family="Times,serif" font-size="14.00">Flow 3: Route Deletion</text>
</g>
<!-- GatewayController -->
<g id="node1" class="node">
<title>GatewayController</title>
<path fill="#a5d6a7" stroke="black" d="M796,-95C796,-95 604,-95 604,-95 598,-95 592,-89 592,-83 592,-83 592,-28 592,-28 592,-22 598,-16 604,-16 604,-16 796,-16 796,-16 802,-16 808,-22 808,-28 808,-28 808,-83 808,-83 808,-89 802,-95 796,-95"/>
<text xml:space="preserve" text-anchor="middle" x="700" y="-79.6" font-family="Arial" font-size="12.00">Gateway Controller</text>
<text xml:space="preserve" text-anchor="middle" x="700" y="-51.35" font-family="Arial" font-size="12.00">• Manage SSH connection</text>
<text xml:space="preserve" text-anchor="middle" x="700" y="-37.1" font-family="Arial" font-size="12.00">• Provide SetRoute/RemoveRoute</text>
<text xml:space="preserve" text-anchor="middle" x="700" y="-22.85" font-family="Arial" font-size="12.00">• Update Gateway status</text>
</g>
<!-- SSHPool -->
<g id="node5" class="node">
<title>SSHPool</title>
<path fill="#ffb74d" stroke="black" d="M1029,-703C1029,-703 837,-703 837,-703 831,-703 825,-697 825,-691 825,-691 825,-636 825,-636 825,-630 831,-624 837,-624 837,-624 1029,-624 1029,-624 1035,-624 1041,-630 1041,-636 1041,-636 1041,-691 1041,-691 1041,-697 1035,-703 1029,-703"/>
<text xml:space="preserve" text-anchor="middle" x="933" y="-687.6" font-family="Arial" font-size="12.00">SSH Session Pool</text>
<text xml:space="preserve" text-anchor="middle" x="933" y="-659.35" font-family="Arial" font-size="12.00">• Up to 3 sessions per pod</text>
<text xml:space="preserve" text-anchor="middle" x="933" y="-645.1" font-family="Arial" font-size="12.00">• plain / pp / sni</text>
<text xml:space="preserve" text-anchor="middle" x="933" y="-630.85" font-family="Arial" font-size="12.00">• Routes calls by SessionKind</text>
</g>
<!-- GatewayController&#45;&gt;SSHPool -->
<g id="edge11" class="edge">
<title>GatewayController&#45;&gt;SSHPool</title>
<path fill="none" stroke="#ff9800" stroke-width="2" d="M808.3,-85.01C988.43,-132.44 1330,-222.38 1330,-222.38 1330,-526.62 1330,-526.62 1330,-526.62 1330,-526.62 1170.51,-581.21 1053.71,-621.19"/>
<polygon fill="#ff9800" stroke="#ff9800" stroke-width="2" points="1052.67,-617.84 1044.35,-624.39 1054.94,-624.46 1052.67,-617.84"/>
<text xml:space="preserve" text-anchor="middle" x="1406.88" y="-406.75" font-family="Arial" font-size="10.00"> &#160;ConfigureSessions()</text>
<text xml:space="preserve" text-anchor="middle" x="1406.88" y="-394.75" font-family="Arial" font-size="10.00"> &#160;IsConnected(kind)</text>
<text xml:space="preserve" text-anchor="middle" x="1406.88" y="-382.75" font-family="Arial" font-size="10.00"> &#160;StartForwarding(kind, ...)</text>
<text xml:space="preserve" text-anchor="middle" x="1406.88" y="-370.75" font-family="Arial" font-size="10.00"> &#160;StopForwarding(kind, ...)</text>
<text xml:space="preserve" text-anchor="middle" x="1406.88" y="-358.75" font-family="Arial" font-size="10.00"> &#160;GetAssignedAddresses(kind, ...) &#160;</text>
</g>
<!-- K8sAPI -->
<g id="node9" class="node">
<title>K8sAPI</title>
<ellipse fill="#e1bee7" stroke="black" cx="700" cy="-386.25" rx="63.6" ry="18"/>
<text xml:space="preserve" text-anchor="middle" x="700" y="-381.98" font-family="Arial" font-size="12.00">Kubernetes API</text>
</g>
<!-- GatewayController&#45;&gt;K8sAPI -->
<g id="edge12" class="edge">
<title>GatewayController&#45;&gt;K8sAPI</title>
<path fill="none" stroke="#2196f3" stroke-width="2" stroke-dasharray="1,5" d="M785.32,-95.5C824.76,-113.52 863,-131 863,-131 863,-131 907,-191 907,-191 907,-191 907,-288.25 907,-288.25 907,-288.25 870,-320.25 870,-320.25 870,-320.25 799.07,-347.37 748.84,-366.58"/>
<polygon fill="#2196f3" stroke="#2196f3" stroke-width="2" points="747.81,-363.22 739.71,-370.06 750.31,-369.76 747.81,-363.22"/>
<text xml:space="preserve" text-anchor="middle" x="947.12" y="-225.88" font-family="Arial" font-size="10.00"> &#160;Update</text>
<text xml:space="preserve" text-anchor="middle" x="947.12" y="-213.88" font-family="Arial" font-size="10.00"> &#160;Gateway.status &#160;</text>
</g>
<!-- HTTPController -->
<g id="node2" class="node">
<title>HTTPController</title>
<path fill="#90caf9" stroke="black" d="M220,-255.75C220,-255.75 28,-255.75 28,-255.75 22,-255.75 16,-249.75 16,-243.75 16,-243.75 16,-203 16,-203 16,-197 22,-191 28,-191 28,-191 220,-191 220,-191 226,-191 232,-197 232,-203 232,-203 232,-243.75 232,-243.75 232,-249.75 226,-255.75 220,-255.75"/>
<text xml:space="preserve" text-anchor="middle" x="124" y="-240.35" font-family="Arial" font-size="12.00">HTTPRoute Controller</text>
<text xml:space="preserve" text-anchor="middle" x="124" y="-212.1" font-family="Arial" font-size="12.00">• Watch HTTPRoute</text>
<text xml:space="preserve" text-anchor="middle" x="124" y="-197.85" font-family="Arial" font-size="12.00">• Call SetRoute/RemoveRoute</text>
</g>
<!-- HTTPController&#45;&gt;GatewayController -->
<g id="edge8" class="edge">
<title>HTTPController&#45;&gt;GatewayController</title>
<path fill="none" stroke="#4caf50" stroke-width="2" d="M230.94,-190.54C319.54,-164.17 431,-131 431,-131 431,-131 507.85,-109.72 579.4,-89.9"/>
<polygon fill="#4caf50" stroke="#4caf50" stroke-width="2" points="580.13,-93.33 588.83,-87.29 578.26,-86.58 580.13,-93.33"/>
<text xml:space="preserve" text-anchor="middle" x="471.5" y="-145.5" font-family="Arial" font-size="10.00"> &#160;SetRoute()</text>
<text xml:space="preserve" text-anchor="middle" x="471.5" y="-133.5" font-family="Arial" font-size="10.00"> &#160;RemoveRoute() &#160;</text>
</g>
<!-- TCPController -->
<g id="node3" class="node">
<title>TCPController</title>
<path fill="#90caf9" stroke="black" d="M508,-255.75C508,-255.75 316,-255.75 316,-255.75 310,-255.75 304,-249.75 304,-243.75 304,-243.75 304,-203 304,-203 304,-197 310,-191 316,-191 316,-191 508,-191 508,-191 514,-191 520,-197 520,-203 520,-203 520,-243.75 520,-243.75 520,-249.75 514,-255.75 508,-255.75"/>
<text xml:space="preserve" text-anchor="middle" x="412" y="-240.35" font-family="Arial" font-size="12.00">TCPRoute Controller</text>
<text xml:space="preserve" text-anchor="middle" x="412" y="-212.1" font-family="Arial" font-size="12.00">• Watch TCPRoute</text>
<text xml:space="preserve" text-anchor="middle" x="412" y="-197.85" font-family="Arial" font-size="12.00">• Call SetRoute/RemoveRoute</text>
</g>
<!-- TCPController&#45;&gt;GatewayController -->
<g id="edge9" class="edge">
<title>TCPController&#45;&gt;GatewayController</title>
<path fill="none" stroke="#4caf50" stroke-width="2" d="M467.19,-190.59C510.83,-165.45 572.32,-130.04 621.15,-101.91"/>
<polygon fill="#4caf50" stroke="#4caf50" stroke-width="2" points="622.78,-105.02 629.69,-96.99 619.28,-98.95 622.78,-105.02"/>
<text xml:space="preserve" text-anchor="middle" x="605.14" y="-145.5" font-family="Arial" font-size="10.00"> &#160;SetRoute()</text>
<text xml:space="preserve" text-anchor="middle" x="605.14" y="-133.5" font-family="Arial" font-size="10.00"> &#160;RemoveRoute() &#160;</text>
</g>
<!-- TLSController -->
<g id="node4" class="node">
<title>TLSController</title>
<path fill="#90caf9" stroke="black" d="M796,-255.75C796,-255.75 604,-255.75 604,-255.75 598,-255.75 592,-249.75 592,-243.75 592,-243.75 592,-203 592,-203 592,-197 598,-191 604,-191 604,-191 796,-191 796,-191 802,-191 808,-197 808,-203 808,-203 808,-243.75 808,-243.75 808,-249.75 802,-255.75 796,-255.75"/>
<text xml:space="preserve" text-anchor="middle" x="700" y="-240.35" font-family="Arial" font-size="12.00">TLSRoute Controller</text>
<text xml:space="preserve" text-anchor="middle" x="700" y="-212.1" font-family="Arial" font-size="12.00">• Watch TLSRoute (v1alpha2)</text>
<text xml:space="preserve" text-anchor="middle" x="700" y="-197.85" font-family="Arial" font-size="12.00">• Call SetRoute/RemoveRoute</text>
</g>
<!-- TLSController&#45;&gt;GatewayController -->
<g id="edge10" class="edge">
<title>TLSController&#45;&gt;GatewayController</title>
<path fill="none" stroke="#4caf50" stroke-width="2" d="M700,-190.78C700,-167.44 700,-135.15 700,-108.08"/>
<polygon fill="#4caf50" stroke="#4caf50" stroke-width="2" points="703.5,-108.3 700,-98.3 696.5,-108.3 703.5,-108.3"/>
<text xml:space="preserve" text-anchor="middle" x="740.5" y="-145.5" font-family="Arial" font-size="10.00"> &#160;SetRoute()</text>
<text xml:space="preserve" text-anchor="middle" x="740.5" y="-133.5" font-family="Arial" font-size="10.00"> &#160;RemoveRoute() &#160;</text>
</g>
<!-- SSHPlain -->
<g id="node6" class="node">
<title>SSHPlain</title>
<path fill="#ffcc80" stroke="black" d="M681.88,-543.88C681.88,-543.88 608.12,-543.88 608.12,-543.88 602.12,-543.88 596.12,-537.88 596.12,-531.88 596.12,-531.88 596.12,-519.38 596.12,-519.38 596.12,-513.38 602.12,-507.38 608.12,-507.38 608.12,-507.38 681.88,-507.38 681.88,-507.38 687.88,-507.38 693.88,-513.38 693.88,-519.38 693.88,-519.38 693.88,-531.88 693.88,-531.88 693.88,-537.88 687.88,-543.88 681.88,-543.88"/>
<text xml:space="preserve" text-anchor="middle" x="645" y="-528.48" font-family="Arial" font-size="12.00">Plain Manager</text>
<text xml:space="preserve" text-anchor="middle" x="645" y="-514.23" font-family="Arial" font-size="12.00">(session=plain)</text>
</g>
<!-- SSHPool&#45;&gt;SSHPlain -->
<g id="edge1" class="edge">
<title>SSHPool&#45;&gt;SSHPlain</title>
<path fill="none" stroke="black" stroke-width="2" stroke-dasharray="1,5" d="M850.47,-623.56C799.88,-599.69 736.82,-569.94 694,-549.74"/>
<polygon fill="black" stroke="black" stroke-width="2" points="695.76,-546.7 685.22,-545.6 692.77,-553.03 695.76,-546.7"/>
</g>
<!-- SSHPP -->
<g id="node7" class="node">
<title>SSHPP</title>
<path fill="#ffcc80" stroke="black" d="M856.5,-551C856.5,-551 777.5,-551 777.5,-551 771.5,-551 765.5,-545 765.5,-539 765.5,-539 765.5,-512.25 765.5,-512.25 765.5,-506.25 771.5,-500.25 777.5,-500.25 777.5,-500.25 856.5,-500.25 856.5,-500.25 862.5,-500.25 868.5,-506.25 868.5,-512.25 868.5,-512.25 868.5,-539 868.5,-539 868.5,-545 862.5,-551 856.5,-551"/>
<text xml:space="preserve" text-anchor="middle" x="817" y="-535.6" font-family="Arial" font-size="12.00">PP Manager</text>
<text xml:space="preserve" text-anchor="middle" x="817" y="-521.35" font-family="Arial" font-size="12.00">(session=pp:vN)</text>
<text xml:space="preserve" text-anchor="middle" x="817" y="-507.1" font-family="Arial" font-size="12.00">[if class flag set]</text>
</g>
<!-- SSHPool&#45;&gt;SSHPP -->
<g id="edge2" class="edge">
<title>SSHPool&#45;&gt;SSHPP</title>
<path fill="none" stroke="black" stroke-width="2" stroke-dasharray="1,5" d="M899.76,-623.56C882.96,-603.89 862.75,-580.22 846.51,-561.19"/>
<polygon fill="black" stroke="black" stroke-width="2" points="849.3,-559.07 840.14,-553.74 843.98,-563.61 849.3,-559.07"/>
</g>
<!-- SSHSNI -->
<g id="node8" class="node">
<title>SSHSNI</title>
<path fill="#ffcc80" stroke="black" d="M1029,-551C1029,-551 953,-551 953,-551 947,-551 941,-545 941,-539 941,-539 941,-512.25 941,-512.25 941,-506.25 947,-500.25 953,-500.25 953,-500.25 1029,-500.25 1029,-500.25 1035,-500.25 1041,-506.25 1041,-512.25 1041,-512.25 1041,-539 1041,-539 1041,-545 1035,-551 1029,-551"/>
<text xml:space="preserve" text-anchor="middle" x="991" y="-535.6" font-family="Arial" font-size="12.00">SNI Manager</text>
<text xml:space="preserve" text-anchor="middle" x="991" y="-521.35" font-family="Arial" font-size="12.00">(session=sni)</text>
<text xml:space="preserve" text-anchor="middle" x="991" y="-507.1" font-family="Arial" font-size="12.00">[if class flag set]</text>
</g>
<!-- SSHPool&#45;&gt;SSHSNI -->
<g id="edge3" class="edge">
<title>SSHPool&#45;&gt;SSHSNI</title>
<path fill="none" stroke="black" stroke-width="2" stroke-dasharray="1,5" d="M949.62,-623.56C957.71,-604.61 967.38,-581.96 975.34,-563.31"/>
<polygon fill="black" stroke="black" stroke-width="2" points="978.52,-564.79 979.22,-554.22 972.08,-562.04 978.52,-564.79"/>
</g>
<!-- Backend -->
<g id="node11" class="node">
<title>Backend</title>
<path fill="#e1bee7" stroke="black" d="M1147.38,-404.25C1147.38,-404.25 1058.62,-404.25 1058.62,-404.25 1052.62,-404.25 1046.62,-398.25 1046.62,-392.25 1046.62,-392.25 1046.62,-380.25 1046.62,-380.25 1046.62,-374.25 1052.62,-368.25 1058.62,-368.25 1058.62,-368.25 1147.38,-368.25 1147.38,-368.25 1153.38,-368.25 1159.38,-374.25 1159.38,-380.25 1159.38,-380.25 1159.38,-392.25 1159.38,-392.25 1159.38,-398.25 1153.38,-404.25 1147.38,-404.25"/>
<text xml:space="preserve" text-anchor="middle" x="1103" y="-381.98" font-family="Arial" font-size="12.00">Backend Services</text>
</g>
<!-- SSHPool&#45;&gt;Backend -->
<g id="edge16" class="edge">
<title>SSHPool&#45;&gt;Backend</title>
<path fill="none" stroke="#4caf50" stroke-width="2" d="M983.36,-623.5C1024.89,-591.35 1077,-551 1077,-551 1077,-551 1090.74,-464.44 1098.25,-417.19"/>
<polygon fill="#4caf50" stroke="#4caf50" stroke-width="2" points="1101.68,-417.88 1099.79,-407.45 1094.77,-416.78 1101.68,-417.88"/>
<text xml:space="preserve" text-anchor="middle" x="1104.15" y="-528.12" font-family="Arial" font-size="10.00"> &#160;Proxy</text>
<text xml:space="preserve" text-anchor="middle" x="1104.15" y="-516.12" font-family="Arial" font-size="10.00"> &#160;traffic &#160;</text>
</g>
<!-- SSHServer -->
<g id="node10" class="node">
<title>SSHServer</title>
<path fill="#e1bee7" stroke="black" d="M962.88,-411.62C962.88,-411.62 847.12,-411.62 847.12,-411.62 841.12,-411.62 835.12,-405.62 835.12,-399.62 835.12,-399.62 835.12,-372.88 835.12,-372.88 835.12,-366.88 841.12,-360.88 847.12,-360.88 847.12,-360.88 962.88,-360.88 962.88,-360.88 968.88,-360.88 974.88,-366.88 974.88,-372.88 974.88,-372.88 974.88,-399.62 974.88,-399.62 974.88,-405.62 968.88,-411.62 962.88,-411.62"/>
<text xml:space="preserve" text-anchor="middle" x="905" y="-396.23" font-family="Arial" font-size="12.00">SSH Server</text>
<text xml:space="preserve" text-anchor="middle" x="905" y="-381.98" font-family="Arial" font-size="12.00">(pico.sh/tuns.sh)</text>
<text xml:space="preserve" text-anchor="middle" x="905" y="-367.73" font-family="Arial" font-size="12.00">plain / pp / sni sessions</text>
</g>
<!-- SSHPlain&#45;&gt;SSHServer -->
<g id="edge13" class="edge">
<title>SSHPlain&#45;&gt;SSHServer</title>
<path fill="none" stroke="#f44336" stroke-width="2" d="M681.7,-499.8C712.67,-478.85 752,-452.25 752,-452.25 752,-452.25 800,-444.12 800,-444.12 800,-444.12 823.28,-431.52 847.91,-418.17"/>
<polygon fill="#f44336" stroke="#f44336" stroke-width="2" points="680,-496.72 673.68,-505.22 683.93,-502.52 680,-496.72"/>
<polygon fill="#f44336" stroke="#f44336" stroke-width="2" points="849.46,-421.31 856.59,-413.47 846.13,-415.16 849.46,-421.31"/>
<text xml:space="preserve" text-anchor="middle" x="786.5" y="-454.75" font-family="Arial" font-size="10.00"> &#160;plain session &#160;</text>
</g>
<!-- SSHPP&#45;&gt;SSHServer -->
<g id="edge14" class="edge">
<title>SSHPP&#45;&gt;SSHServer</title>
<path fill="none" stroke="#f44336" stroke-width="2" d="M830.19,-487.91C836.63,-469.99 843,-452.25 843,-452.25 843,-452.25 857.68,-436.86 872.75,-421.06"/>
<polygon fill="#f44336" stroke="#f44336" stroke-width="2" points="826.91,-486.68 826.83,-497.27 833.5,-489.05 826.91,-486.68"/>
<polygon fill="#f44336" stroke="#f44336" stroke-width="2" points="875.1,-423.67 879.47,-414.01 870.04,-418.83 875.1,-423.67"/>
<text xml:space="preserve" text-anchor="middle" x="886.5" y="-454.75" font-family="Arial" font-size="10.00"> &#160;proxy&#45;protocol=N &#160;</text>
</g>
<!-- SSHSNI&#45;&gt;SSHServer -->
<g id="edge15" class="edge">
<title>SSHSNI&#45;&gt;SSHServer</title>
<path fill="none" stroke="#f44336" stroke-width="2" d="M968.82,-489.19C956.11,-468.89 940.19,-443.47 927.44,-423.1"/>
<polygon fill="#f44336" stroke="#f44336" stroke-width="2" points="965.75,-490.88 974.02,-497.5 971.68,-487.17 965.75,-490.88"/>
<polygon fill="#f44336" stroke="#f44336" stroke-width="2" points="930.41,-421.25 922.14,-414.63 924.48,-424.96 930.41,-421.25"/>
<text xml:space="preserve" text-anchor="middle" x="990.27" y="-454.75" font-family="Arial" font-size="10.00"> &#160;sni&#45;proxy=true &#160;</text>
</g>
<!-- K8sAPI&#45;&gt;GatewayController -->
<g id="edge4" class="edge">
<title>K8sAPI&#45;&gt;GatewayController</title>
<path fill="none" stroke="#2196f3" stroke-width="2" stroke-dasharray="5,2" d="M723.78,-369.23C764.68,-341.68 844,-288.25 844,-288.25 844,-288.25 844,-191 844,-191 844,-191 799,-131 799,-131 799,-131 782,-118.21 762.09,-103.23"/>
<polygon fill="#2196f3" stroke="#2196f3" stroke-width="2" points="764.33,-100.53 754.24,-97.32 760.12,-106.13 764.33,-100.53"/>
<text xml:space="preserve" text-anchor="middle" x="866.5" y="-225.88" font-family="Arial" font-size="10.00"> &#160;Gateway</text>
<text xml:space="preserve" text-anchor="middle" x="866.5" y="-213.88" font-family="Arial" font-size="10.00"> &#160;events &#160;</text>
</g>
<!-- K8sAPI&#45;&gt;HTTPController -->
<g id="edge5" class="edge">
<title>K8sAPI&#45;&gt;HTTPController</title>
<path fill="none" stroke="#2196f3" stroke-width="2" stroke-dasharray="5,2" d="M651.28,-374.31C538.3,-348.94 268,-288.25 268,-288.25 268,-288.25 239.22,-275.48 207.39,-261.37"/>
<polygon fill="#2196f3" stroke="#2196f3" stroke-width="2" points="208.91,-258.21 198.35,-257.35 206.07,-264.61 208.91,-258.21"/>
<text xml:space="preserve" text-anchor="middle" x="436.98" y="-310.75" font-family="Arial" font-size="10.00"> &#160;HTTPRoute</text>
<text xml:space="preserve" text-anchor="middle" x="436.98" y="-298.75" font-family="Arial" font-size="10.00"> &#160;events &#160;</text>
</g>
<!-- K8sAPI&#45;&gt;TCPController -->
<g id="edge6" class="edge">
<title>K8sAPI&#45;&gt;TCPController</title>
<path fill="none" stroke="#2196f3" stroke-width="2" stroke-dasharray="5,2" d="M672.12,-369.68C628.14,-345.11 541.34,-296.62 480.14,-262.44"/>
<polygon fill="#2196f3" stroke="#2196f3" stroke-width="2" points="482.1,-259.52 471.67,-257.7 478.69,-265.64 482.1,-259.52"/>
<text xml:space="preserve" text-anchor="middle" x="607.67" y="-310.75" font-family="Arial" font-size="10.00"> &#160;TCPRoute</text>
<text xml:space="preserve" text-anchor="middle" x="607.67" y="-298.75" font-family="Arial" font-size="10.00"> &#160;events &#160;</text>
</g>
<!-- K8sAPI&#45;&gt;TLSController -->
<g id="edge7" class="edge">
<title>K8sAPI&#45;&gt;TLSController</title>
<path fill="none" stroke="#2196f3" stroke-width="2" stroke-dasharray="5,2" d="M700,-368.03C700,-344.6 700,-301.81 700,-269.01"/>
<polygon fill="#2196f3" stroke="#2196f3" stroke-width="2" points="703.5,-269.12 700,-259.12 696.5,-269.12 703.5,-269.12"/>
<text xml:space="preserve" text-anchor="middle" x="724.75" y="-310.75" font-family="Arial" font-size="10.00"> &#160;TLSRoute</text>
<text xml:space="preserve" text-anchor="middle" x="724.75" y="-298.75" font-family="Arial" font-size="10.00"> &#160;events &#160;</text>
</g>
<!-- flow1_1 -->
<g id="node12" class="node">
<title>flow1_1</title>
<polygon fill="#bbdefb" stroke="black" points="1686,-681.5 1556,-681.5 1556,-645.5 1692,-645.5 1692,-675.5 1686,-681.5"/>
<polyline fill="none" stroke="black" points="1686,-681.5 1686,-675.5"/>
<polyline fill="none" stroke="black" points="1692,-675.5 1686,-675.5"/>
<text xml:space="preserve" text-anchor="middle" x="1624" y="-659.23" font-family="Arial" font-size="12.00">1. HTTPRoute created</text>
</g>
<!-- flow1_2 -->
<g id="node13" class="node">
<title>flow1_2</title>
<polygon fill="#90caf9" stroke="black" points="1675.88,-543.88 1566.12,-543.88 1566.12,-507.38 1681.88,-507.38 1681.88,-537.88 1675.88,-543.88"/>
<polyline fill="none" stroke="black" points="1675.88,-543.88 1675.88,-537.88"/>
<polyline fill="none" stroke="black" points="1681.88,-537.88 1675.88,-537.88"/>
<text xml:space="preserve" text-anchor="middle" x="1624" y="-528.48" font-family="Arial" font-size="12.00">2. HTTP Controller</text>
<text xml:space="preserve" text-anchor="middle" x="1624" y="-514.23" font-family="Arial" font-size="12.00">calls SetRoute()</text>
</g>
<!-- flow1_1&#45;&gt;flow1_2 -->
<!-- flow1_3 -->
<g id="node14" class="node">
<title>flow1_3</title>
<polygon fill="#a5d6a7" stroke="black" points="1686.38,-404.5 1555.62,-404.5 1555.62,-368 1692.38,-368 1692.38,-398.5 1686.38,-404.5"/>
<polyline fill="none" stroke="black" points="1686.38,-404.5 1686.38,-398.5"/>
<polyline fill="none" stroke="black" points="1692.38,-398.5 1686.38,-398.5"/>
<text xml:space="preserve" text-anchor="middle" x="1624" y="-389.1" font-family="Arial" font-size="12.00">3. Gateway Controller</text>
<text xml:space="preserve" text-anchor="middle" x="1624" y="-374.85" font-family="Arial" font-size="12.00">calls StartForwarding()</text>
</g>
<!-- flow1_2&#45;&gt;flow1_3 -->
<!-- flow1_4 -->
<g id="node15" class="node">
<title>flow1_4</title>
<polygon fill="#ffcc80" stroke="black" points="1670.25,-241.62 1571.75,-241.62 1571.75,-205.12 1676.25,-205.12 1676.25,-235.62 1670.25,-241.62"/>
<polyline fill="none" stroke="black" points="1670.25,-241.62 1670.25,-235.62"/>
<polyline fill="none" stroke="black" points="1676.25,-235.62 1670.25,-235.62"/>
<text xml:space="preserve" text-anchor="middle" x="1624" y="-226.22" font-family="Arial" font-size="12.00">4. SSH Manager</text>
<text xml:space="preserve" text-anchor="middle" x="1624" y="-211.97" font-family="Arial" font-size="12.00">creates tunnel</text>
</g>
<!-- flow1_3&#45;&gt;flow1_4 -->
<!-- flow1_5 -->
<g id="node16" class="node">
<title>flow1_5</title>
<polygon fill="#e1bee7" stroke="black" points="1673.25,-73.75 1568.75,-73.75 1568.75,-37.25 1679.25,-37.25 1679.25,-67.75 1673.25,-73.75"/>
<polyline fill="none" stroke="black" points="1673.25,-73.75 1673.25,-67.75"/>
<polyline fill="none" stroke="black" points="1679.25,-67.75 1673.25,-67.75"/>
<text xml:space="preserve" text-anchor="middle" x="1624" y="-58.35" font-family="Arial" font-size="12.00">5. Gateway status</text>
<text xml:space="preserve" text-anchor="middle" x="1624" y="-44.1" font-family="Arial" font-size="12.00">updated</text>
</g>
<!-- flow1_4&#45;&gt;flow1_5 -->
<!-- flow2_1 -->
<g id="node17" class="node">
<title>flow2_1</title>
<polygon fill="#ffe0b2" stroke="black" points="1875.5,-681.75 1766.5,-681.75 1766.5,-645.25 1881.5,-645.25 1881.5,-675.75 1875.5,-681.75"/>
<polyline fill="none" stroke="black" points="1875.5,-681.75 1875.5,-675.75"/>
<polyline fill="none" stroke="black" points="1881.5,-675.75 1875.5,-675.75"/>
<text xml:space="preserve" text-anchor="middle" x="1824" y="-666.35" font-family="Arial" font-size="12.00">1. SSH disconnect</text>
<text xml:space="preserve" text-anchor="middle" x="1824" y="-652.1" font-family="Arial" font-size="12.00">detected</text>
</g>
<!-- flow2_2 -->
<g id="node18" class="node">
<title>flow2_2</title>
<polygon fill="#a5d6a7" stroke="black" points="1888.25,-543.88 1753.75,-543.88 1753.75,-507.38 1894.25,-507.38 1894.25,-537.88 1888.25,-543.88"/>
<polyline fill="none" stroke="black" points="1888.25,-543.88 1888.25,-537.88"/>
<polyline fill="none" stroke="black" points="1894.25,-537.88 1888.25,-537.88"/>
<text xml:space="preserve" text-anchor="middle" x="1824" y="-528.48" font-family="Arial" font-size="12.00">2. Gateway Reconcile()</text>
<text xml:space="preserve" text-anchor="middle" x="1824" y="-514.23" font-family="Arial" font-size="12.00">calls Connect()</text>
</g>
<!-- flow2_1&#45;&gt;flow2_2 -->
<!-- flow2_3 -->
<g id="node19" class="node">
<title>flow2_3</title>
<polygon fill="#ffcc80" stroke="black" points="1875.88,-404.25 1766.12,-404.25 1766.12,-368.25 1881.88,-368.25 1881.88,-398.25 1875.88,-404.25"/>
<polyline fill="none" stroke="black" points="1875.88,-404.25 1875.88,-398.25"/>
<polyline fill="none" stroke="black" points="1881.88,-398.25 1875.88,-398.25"/>
<text xml:space="preserve" text-anchor="middle" x="1824" y="-381.98" font-family="Arial" font-size="12.00">3. SSH reconnects</text>
</g>
<!-- flow2_2&#45;&gt;flow2_3 -->
<!-- flow2_4 -->
<g id="node20" class="node">
<title>flow2_4</title>
<polygon fill="#90caf9" stroke="black" points="1879.62,-241.62 1762.38,-241.62 1762.38,-205.12 1885.62,-205.12 1885.62,-235.62 1879.62,-241.62"/>
<polyline fill="none" stroke="black" points="1879.62,-241.62 1879.62,-235.62"/>
<polyline fill="none" stroke="black" points="1885.62,-235.62 1879.62,-235.62"/>
<text xml:space="preserve" text-anchor="middle" x="1824" y="-226.22" font-family="Arial" font-size="12.00">4. Routes reconcile</text>
<text xml:space="preserve" text-anchor="middle" x="1824" y="-211.97" font-family="Arial" font-size="12.00">validate forwardings</text>
</g>
<!-- flow2_3&#45;&gt;flow2_4 -->
<!-- flow2_5 -->
<g id="node21" class="node">
<title>flow2_5</title>
<polygon fill="#ffcc80" stroke="black" points="1882.62,-73.75 1759.38,-73.75 1759.38,-37.25 1888.62,-37.25 1888.62,-67.75 1882.62,-73.75"/>
<polyline fill="none" stroke="black" points="1882.62,-73.75 1882.62,-67.75"/>
<polyline fill="none" stroke="black" points="1888.62,-67.75 1882.62,-67.75"/>
<text xml:space="preserve" text-anchor="middle" x="1824" y="-58.35" font-family="Arial" font-size="12.00">5. Invalid forwardings</text>
<text xml:space="preserve" text-anchor="middle" x="1824" y="-44.1" font-family="Arial" font-size="12.00">re&#45;established</text>
</g>
<!-- flow2_4&#45;&gt;flow2_5 -->
<!-- flow3_1 -->
<g id="node22" class="node">
<title>flow3_1</title>
<polygon fill="#ffcdd2" stroke="black" points="2093,-681.5 1963,-681.5 1963,-645.5 2099,-645.5 2099,-675.5 2093,-681.5"/>
<polyline fill="none" stroke="black" points="2093,-681.5 2093,-675.5"/>
<polyline fill="none" stroke="black" points="2099,-675.5 2093,-675.5"/>
<text xml:space="preserve" text-anchor="middle" x="2031" y="-659.23" font-family="Arial" font-size="12.00">1. HTTPRoute deleted</text>
</g>
<!-- flow3_2 -->
<g id="node23" class="node">
<title>flow3_2</title>
<polygon fill="#90caf9" stroke="black" points="2089.25,-543.88 1966.75,-543.88 1966.75,-507.38 2095.25,-507.38 2095.25,-537.88 2089.25,-543.88"/>
<polyline fill="none" stroke="black" points="2089.25,-543.88 2089.25,-537.88"/>
<polyline fill="none" stroke="black" points="2095.25,-537.88 2089.25,-537.88"/>
<text xml:space="preserve" text-anchor="middle" x="2031" y="-528.48" font-family="Arial" font-size="12.00">2. HTTP Controller</text>
<text xml:space="preserve" text-anchor="middle" x="2031" y="-514.23" font-family="Arial" font-size="12.00">calls RemoveRoute()</text>
</g>
<!-- flow3_1&#45;&gt;flow3_2 -->
<!-- flow3_3 -->
<g id="node24" class="node">
<title>flow3_3</title>
<polygon fill="#a5d6a7" stroke="black" points="2093.38,-404.5 1962.62,-404.5 1962.62,-368 2099.38,-368 2099.38,-398.5 2093.38,-404.5"/>
<polyline fill="none" stroke="black" points="2093.38,-404.5 2093.38,-398.5"/>
<polyline fill="none" stroke="black" points="2099.38,-398.5 2093.38,-398.5"/>
<text xml:space="preserve" text-anchor="middle" x="2031" y="-389.1" font-family="Arial" font-size="12.00">3. Gateway Controller</text>
<text xml:space="preserve" text-anchor="middle" x="2031" y="-374.85" font-family="Arial" font-size="12.00">calls StopForwarding()</text>
</g>
<!-- flow3_2&#45;&gt;flow3_3 -->
<!-- flow3_4 -->
<g id="node25" class="node">
<title>flow3_4</title>
<polygon fill="#ffcc80" stroke="black" points="2077.25,-241.62 1978.75,-241.62 1978.75,-205.12 2083.25,-205.12 2083.25,-235.62 2077.25,-241.62"/>
<polyline fill="none" stroke="black" points="2077.25,-241.62 2077.25,-235.62"/>
<polyline fill="none" stroke="black" points="2083.25,-235.62 2077.25,-235.62"/>
<text xml:space="preserve" text-anchor="middle" x="2031" y="-226.22" font-family="Arial" font-size="12.00">4. SSH Manager</text>
<text xml:space="preserve" text-anchor="middle" x="2031" y="-211.97" font-family="Arial" font-size="12.00">cleans tunnel</text>
</g>
<!-- flow3_3&#45;&gt;flow3_4 -->
<!-- flow3_5 -->
<g id="node26" class="node">
<title>flow3_5</title>
<polygon fill="#e1bee7" stroke="black" points="2080.25,-73.75 1975.75,-73.75 1975.75,-37.25 2086.25,-37.25 2086.25,-67.75 2080.25,-73.75"/>
<polyline fill="none" stroke="black" points="2080.25,-73.75 2080.25,-67.75"/>
<polyline fill="none" stroke="black" points="2086.25,-67.75 2080.25,-67.75"/>
<text xml:space="preserve" text-anchor="middle" x="2031" y="-58.35" font-family="Arial" font-size="12.00">5. Gateway status</text>
<text xml:space="preserve" text-anchor="middle" x="2031" y="-44.1" font-family="Arial" font-size="12.00">updated</text>
</g>
<!-- flow3_4&#45;&gt;flow3_5 -->
</g>
</svg>
