<?xml version="1.0" encoding="UTF-8" standalone="no"?>
<!DOCTYPE svg PUBLIC "-//W3C//DTD SVG 1.1//EN"
 "http://www.w3.org/Graphics/SVG/1.1/DTD/svg11.dtd">
<!-- Generated by graphviz version 14.0.4 (20251115.1723)
 -->
<!-- Title: SimplifiedArchitecture Pages: 1 -->
<svg width="1980pt" height="766pt"
 viewBox="0.00 0.00 1980.00 766.00" xmlns="http://www.w3.org/2000/svg" xmlns:xlink="http://www.w3.org/1999/xlink">
<g id="graph0" class="graph" transform="scale(1 1) rotate(0) translate(4 762)">
<title>SimplifiedArchitecture</title>
<polygon fill="white" stroke="none" points="-4,4 -4,-762 1976,-762 1976,4 -4,4"/>
<g id="clust1" class="cluster">
<title>cluster_controllers</title>
<polygon fill="#e8f5e9" stroke="#e8f5e9" points="8,-227 8,-531.75 528,-531.75 528,-227 8,-227"/>
<text xml:space="preserve" text-anchor="middle" x="268" y="-514.45" font-family="Times,serif" font-size="14.00">Controllers</text>
</g>
<g id="clust2" class="cluster">
<title>cluster_ssh</title>
<polygon fill="#ffe0b2" stroke="#ffe0b2" points="999,-591.75 999,-750 1231,-750 1231,-591.75 999,-591.75"/>
<text xml:space="preserve" text-anchor="middle" x="1115" y="-732.7" font-family="Times,serif" font-size="14.00">SSH Layer</text>
</g>
<g id="clust3" class="cluster">
<title>cluster_external</title>
<polygon fill="#f3e5f5" stroke="#f3e5f5" points="856,-416.12 856,-517.62 1359,-517.62 1359,-416.12 856,-416.12"/>
<text xml:space="preserve" text-anchor="middle" x="1107.5" y="-500.32" font-family="Times,serif" font-size="14.00">External Systems</text>
</g>
<g id="clust4" class="cluster">
<title>cluster_flow1</title>
<path fill="#e3f2fd" stroke="#e3f2fd" stroke-width="2" d="M1417,-8C1417,-8 1545,-8 1545,-8 1551,-8 1557,-14 1557,-20 1557,-20 1557,-709.38 1557,-709.38 1557,-715.38 1551,-721.38 1545,-721.38 1545,-721.38 1417,-721.38 1417,-721.38 1411,-721.38 1405,-715.38 1405,-709.38 1405,-709.38 1405,-20 1405,-20 1405,-14 1411,-8 1417,-8"/>
<text xml:space="preserve" text-anchor="middle" x="1481" y="-704.08" font-family="Times,serif" font-size="14.00">Flow 1: Route Creation</text>
</g>
<g id="clust5" class="cluster">
<title>cluster_flow2</title>
<path fill="#fff3e0" stroke="#fff3e0" stroke-width="2" d="M1611,-8C1611,-8 1752,-8 1752,-8 1758,-8 1764,-14 1764,-20 1764,-20 1764,-709.62 1764,-709.62 1764,-715.62 1758,-721.62 1752,-721.62 1752,-721.62 1611,-721.62 1611,-721.62 1605,-721.62 1599,-715.62 1599,-709.62 1599,-709.62 1599,-20 1599,-20 1599,-14 1605,-8 1611,-8"/>
<text xml:space="preserve" text-anchor="middle" x="1681.5" y="-704.33" font-family="Times,serif" font-size="14.00">Flow 2: SSH Reconnection</text>
</g>
<g id="clust6" class="cluster">
<title>cluster_flow3</title>
<path fill="#ffebee" stroke="#ffebee" stroke-width="2" d="M1824,-8C1824,-8 1952,-8 1952,-8 1958,-8 1964,-14 1964,-20 1964,-20 1964,-709.38 1964,-709.38 1964,-715.38 1958,-721.38 1952,-721.38 1952,-721.38 1824,-721.38 1824,-721.38 1818,-721.38 1812,-715.38 1812,-709.38 1812,-709.38 1812,-20 1812,-20 1812,-14 1818,-8 1824,-8"/>
<text xml:space="preserve" text-anchor="middle" x="1888" y="-704.08" font-family="Times,serif" font-size="14.00">Flow 3: Route Deletion</text>
</g>
<!-- GatewayController -->
<g id="node1" class="node">
<title>GatewayController</title>
<path fill="#a5d6a7" stroke="black" d="M508,-314C508,-314 316,-314 316,-314 310,-314 304,-308 304,-302 304,-302 304,-247 304,-247 304,-241 310,-235 316,-235 316,-235 508,-235 508,-235 514,-235 520,-241 520,-247 520,-247 520,-302 520,-302 520,-308 514,-314 508,-314"/>
<text xml:space="preserve" text-anchor="middle" x="412" y="-298.6" font-family="Arial" font-size="12.00">Gateway Controller</text>
<text xml:space="preserve" text-anchor="middle" x="412" y="-270.35" font-family="Arial" font-size="12.00">• Manage SSH connection</text>
<text xml:space="preserve" text-anchor="middle" x="412" y="-256.1" font-family="Arial" font-size="12.00">• Provide SetRoute/RemoveRoute</text>
<text xml:space="preserve" text-anchor="middle" x="412" y="-241.85" font-family="Arial" font-size="12.00">• Update Gateway status</text>
</g>
<!-- SSHManager -->
<g id="node4" class="node">
<title>SSHManager</title>
<path fill="#ffcc80" stroke="black" d="M1211,-693C1211,-693 1019,-693 1019,-693 1013,-693 1007,-687 1007,-681 1007,-681 1007,-611.75 1007,-611.75 1007,-605.75 1013,-599.75 1019,-599.75 1019,-599.75 1211,-599.75 1211,-599.75 1217,-599.75 1223,-605.75 1223,-611.75 1223,-611.75 1223,-681 1223,-681 1223,-687 1217,-693 1211,-693"/>
<text xml:space="preserve" text-anchor="middle" x="1115" y="-677.6" font-family="Arial" font-size="12.00">SSH Tunnel Manager</text>
<text xml:space="preserve" text-anchor="middle" x="1115" y="-649.35" font-family="Arial" font-size="12.00">• Connect/Disconnect</text>
<text xml:space="preserve" text-anchor="middle" x="1115" y="-635.1" font-family="Arial" font-size="12.00">• Start/Stop Forwardings</text>
<text xml:space="preserve" text-anchor="middle" x="1115" y="-620.85" font-family="Arial" font-size="12.00">• Monitor keepalive</text>
<text xml:space="preserve" text-anchor="middle" x="1115" y="-606.6" font-family="Arial" font-size="12.00">• Proxy traffic</text>
</g>
<!-- GatewayController&#45;&gt;SSHManager -->
<g id="edge6" class="edge">
<title>GatewayController&#45;&gt;SSHManager</title>
<path fill="none" stroke="#ff9800" stroke-width="2" d="M463.82,-314.5C487.77,-332.52 511,-350 511,-350 511,-350 676,-563.75 676,-563.75 676,-563.75 864.04,-598.71 993.99,-622.87"/>
<polygon fill="#ff9800" stroke="#ff9800" stroke-width="2" points="993.32,-626.31 1003.79,-624.7 994.6,-619.43 993.32,-626.31"/>
<text xml:space="preserve" text-anchor="middle" x="711.62" y="-462.88" font-family="Arial" font-size="10.00"> &#160;Connect()</text>
<text xml:space="preserve" text-anchor="middle" x="711.62" y="-450.88" font-family="Arial" font-size="10.00"> &#160;IsConnected()</text>
<text xml:space="preserve" text-anchor="middle" x="711.62" y="-438.88" font-family="Arial" font-size="10.00"> &#160;StartForwarding()</text>
<text xml:space="preserve" text-anchor="middle" x="711.62" y="-426.88" font-family="Arial" font-size="10.00"> &#160;StopForwarding()</text>
<text xml:space="preserve" text-anchor="middle" x="711.62" y="-414.88" font-family="Arial" font-size="10.00"> &#160;GetAssignedAddresses() &#160;</text>
</g>
<!-- K8sAPI -->
<g id="node5" class="node">
<title>K8sAPI</title>
<ellipse fill="#e1bee7" stroke="black" cx="928" cy="-442.38" rx="63.6" ry="18"/>
<text xml:space="preserve" text-anchor="middle" x="928" y="-438.1" font-family="Arial" font-size="12.00">Kubernetes API</text>
</g>
<!-- GatewayController&#45;&gt;K8sAPI -->
<g id="edge7" class="edge">
<title>GatewayController&#45;&gt;K8sAPI</title>
<path fill="none" stroke="#2196f3" stroke-width="2" stroke-dasharray="1,5" d="M520.4,-303.35C602.77,-324.51 702,-350 702,-350 702,-350 760.75,-374 760.75,-374 760.75,-374 831.02,-402.31 880.46,-422.23"/>
<polygon fill="#2196f3" stroke="#2196f3" stroke-width="2" points="879.14,-425.47 889.72,-425.96 881.75,-418.97 879.14,-425.47"/>
<text xml:space="preserve" text-anchor="middle" x="800.88" y="-364.5" font-family="Arial" font-size="10.00"> &#160;Update</text>
<text xml:space="preserve" text-anchor="middle" x="800.88" y="-352.5" font-family="Arial" font-size="10.00"> &#160;Gateway.status &#160;</text>
</g>
<!-- HTTPController -->
<g id="node2" class="node">
<title>HTTPController</title>
<path fill="#90caf9" stroke="black" d="M220,-474.75C220,-474.75 28,-474.75 28,-474.75 22,-474.75 16,-468.75 16,-462.75 16,-462.75 16,-422 16,-422 16,-416 22,-410 28,-410 28,-410 220,-410 220,-410 226,-410 232,-416 232,-422 232,-422 232,-462.75 232,-462.75 232,-468.75 226,-474.75 220,-474.75"/>
<text xml:space="preserve" text-anchor="middle" x="124" y="-459.35" font-family="Arial" font-size="12.00">HTTPRoute Controller</text>
<text xml:space="preserve" text-anchor="middle" x="124" y="-431.1" font-family="Arial" font-size="12.00">• Watch HTTPRoute</text>
<text xml:space="preserve" text-anchor="middle" x="124" y="-416.85" font-family="Arial" font-size="12.00">• Call SetRoute/RemoveRoute</text>
</g>
<!-- HTTPController&#45;&gt;GatewayController -->
<g id="edge4" class="edge">
<title>HTTPController&#45;&gt;GatewayController</title>
<path fill="none" stroke="#4caf50" stroke-width="2" d="M179.19,-409.59C222.83,-384.45 284.32,-349.04 333.15,-320.91"/>
<polygon fill="#4caf50" stroke="#4caf50" stroke-width="2" points="334.78,-324.02 341.69,-315.99 331.28,-317.95 334.78,-324.02"/>
<text xml:space="preserve" text-anchor="middle" x="317.14" y="-364.5" font-family="Arial" font-size="10.00"> &#160;SetRoute()</text>
<text xml:space="preserve" text-anchor="middle" x="317.14" y="-352.5" font-family="Arial" font-size="10.00"> &#160;RemoveRoute() &#160;</text>
</g>
<!-- TCPController -->
<g id="node3" class="node">
<title>TCPController</title>
<path fill="#90caf9" stroke="black" d="M508,-474.75C508,-474.75 316,-474.75 316,-474.75 310,-474.75 304,-468.75 304,-462.75 304,-462.75 304,-422 304,-422 304,-416 310,-410 316,-410 316,-410 508,-410 508,-410 514,-410 520,-416 520,-422 520,-422 520,-462.75 520,-462.75 520,-468.75 514,-474.75 508,-474.75"/>
<text xml:space="preserve" text-anchor="middle" x="412" y="-459.35" font-family="Arial" font-size="12.00">TCPRoute Controller</text>
<text xml:space="preserve" text-anchor="middle" x="412" y="-431.1" font-family="Arial" font-size="12.00">• Watch TCPRoute</text>
<text xml:space="preserve" text-anchor="middle" x="412" y="-416.85" font-family="Arial" font-size="12.00">• Call SetRoute/RemoveRoute</text>
</g>
<!-- TCPController&#45;&gt;GatewayController -->
<g id="edge5" class="edge">
<title>TCPController&#45;&gt;GatewayController</title>
<path fill="none" stroke="#4caf50" stroke-width="2" d="M412,-409.78C412,-386.44 412,-354.15 412,-327.08"/>
<polygon fill="#4caf50" stroke="#4caf50" stroke-width="2" points="415.5,-327.3 412,-317.3 408.5,-327.3 415.5,-327.3"/>
<text xml:space="preserve" text-anchor="middle" x="452.5" y="-364.5" font-family="Arial" font-size="10.00"> &#160;SetRoute()</text>
<text xml:space="preserve" text-anchor="middle" x="452.5" y="-352.5" font-family="Arial" font-size="10.00"> &#160;RemoveRoute() &#160;</text>
</g>
<!-- SSHServer -->
<g id="node6" class="node">
<title>SSHServer</title>
<path fill="#e1bee7" stroke="black" d="M1154.5,-460.62C1154.5,-460.62 1075.5,-460.62 1075.5,-460.62 1069.5,-460.62 1063.5,-454.62 1063.5,-448.62 1063.5,-448.62 1063.5,-436.12 1063.5,-436.12 1063.5,-430.12 1069.5,-424.12 1075.5,-424.12 1075.5,-424.12 1154.5,-424.12 1154.5,-424.12 1160.5,-424.12 1166.5,-430.12 1166.5,-436.12 1166.5,-436.12 1166.5,-448.62 1166.5,-448.62 1166.5,-454.62 1160.5,-460.62 1154.5,-460.62"/>
<text xml:space="preserve" text-anchor="middle" x="1115" y="-445.23" font-family="Arial" font-size="12.00">SSH Server</text>
<text xml:space="preserve" text-anchor="middle" x="1115" y="-430.98" font-family="Arial" font-size="12.00">(pico.sh/tuns.sh)</text>
</g>
<!-- SSHManager&#45;&gt;SSHServer -->
<g id="edge8" class="edge">
<title>SSHManager&#45;&gt;SSHServer</title>
<path fill="none" stroke="#f44336" stroke-width="2" d="M1115,-586.42C1115,-549.42 1115,-503.26 1115,-473.55"/>
<polygon fill="#f44336" stroke="#f44336" stroke-width="2" points="1111.5,-586.26 1115,-596.26 1118.5,-586.26 1111.5,-586.26"/>
<polygon fill="#f44336" stroke="#f44336" stroke-width="2" points="1118.5,-473.81 1115,-463.81 1111.5,-473.81 1118.5,-473.81"/>
<text xml:space="preserve" text-anchor="middle" x="1149.12" y="-554.25" font-family="Arial" font-size="10.00"> &#160;SSH Protocol</text>
<text xml:space="preserve" text-anchor="middle" x="1149.12" y="-542.25" font-family="Arial" font-size="10.00"> &#160;(forwardings) &#160;</text>
</g>
<!-- Backend -->
<g id="node7" class="node">
<title>Backend</title>
<path fill="#e1bee7" stroke="black" d="M1339.38,-460.38C1339.38,-460.38 1250.62,-460.38 1250.62,-460.38 1244.62,-460.38 1238.62,-454.38 1238.62,-448.38 1238.62,-448.38 1238.62,-436.38 1238.62,-436.38 1238.62,-430.38 1244.62,-424.38 1250.62,-424.38 1250.62,-424.38 1339.38,-424.38 1339.38,-424.38 1345.38,-424.38 1351.38,-430.38 1351.38,-436.38 1351.38,-436.38 1351.38,-448.38 1351.38,-448.38 1351.38,-454.38 1345.38,-460.38 1339.38,-460.38"/>
<text xml:space="preserve" text-anchor="middle" x="1295" y="-438.1" font-family="Arial" font-size="12.00">Backend Services</text>
</g>
<!-- SSHManager&#45;&gt;Backend -->
<g id="edge9" class="edge">
<title>SSHManager&#45;&gt;Backend</title>
<path fill="none" stroke="#4caf50" stroke-width="2" d="M1163.53,-599.31C1183.04,-580.8 1201,-563.75 1201,-563.75 1201,-563.75 1245.79,-506.39 1273.54,-470.86"/>
<polygon fill="#4caf50" stroke="#4caf50" stroke-width="2" points="1276.27,-473.04 1279.67,-463.01 1270.76,-468.74 1276.27,-473.04"/>
<text xml:space="preserve" text-anchor="middle" x="1236.98" y="-554.25" font-family="Arial" font-size="10.00"> &#160;Proxy</text>
<text xml:space="preserve" text-anchor="middle" x="1236.98" y="-542.25" font-family="Arial" font-size="10.00"> &#160;traffic &#160;</text>
</g>
<!-- K8sAPI&#45;&gt;GatewayController -->
<g id="edge1" class="edge">
<title>K8sAPI&#45;&gt;GatewayController</title>
<path fill="none" stroke="#2196f3" stroke-width="2" stroke-dasharray="5,2" d="M915.34,-424.62C895.42,-398.24 859,-350 859,-350 859,-350 665.48,-317.75 533.1,-295.68"/>
<polygon fill="#2196f3" stroke="#2196f3" stroke-width="2" points="533.92,-292.27 523.48,-294.08 532.77,-299.18 533.92,-292.27"/>
<text xml:space="preserve" text-anchor="middle" x="898.17" y="-364.5" font-family="Arial" font-size="10.00"> &#160;Gateway</text>
<text xml:space="preserve" text-anchor="middle" x="898.17" y="-352.5" font-family="Arial" font-size="10.00"> &#160;events &#160;</text>
</g>
<!-- K8sAPI&#45;&gt;HTTPController -->
<g id="edge2" class="edge">
<title>K8sAPI&#45;&gt;HTTPController</title>
<path fill="none" stroke="#2196f3" stroke-width="2" stroke-dasharray="5,2" d="M904.19,-459.4C867.93,-485.33 803,-531.75 803,-531.75 803,-531.75 792.25,-536.02 792.25,-536.02 792.25,-536.02 733.75,-536.02 733.75,-536.02 733.75,-536.02 268,-531.75 268,-531.75 268,-531.75 226.14,-505.77 187.56,-481.82"/>
<polygon fill="#2196f3" stroke="#2196f3" stroke-width="2" points="189.72,-479.04 179.37,-476.74 186.03,-484.99 189.72,-479.04"/>
<text xml:space="preserve" text-anchor="middle" x="763" y="-554.25" font-family="Arial" font-size="10.00"> &#160;HTTPRoute</text>
<text xml:space="preserve" text-anchor="middle" x="763" y="-542.25" font-family="Arial" font-size="10.00"> &#160;events &#160;</text>
</g>
<!-- K8sAPI&#45;&gt;TCPController -->
<g id="edge3" class="edge">
<title>K8sAPI&#45;&gt;TCPController</title>
<path fill="none" stroke="#2196f3" stroke-width="2" stroke-dasharray="5,2" d="M904.19,-459.4C867.93,-485.33 803,-531.75 803,-531.75 803,-531.75 728.88,-536.02 728.88,-536.02 728.88,-536.02 677.12,-536.02 677.12,-536.02 677.12,-536.02 574,-531.75 574,-531.75 574,-531.75 526.3,-505.44 482.67,-481.36"/>
<polygon fill="#2196f3" stroke="#2196f3" stroke-width="2" points="484.5,-478.38 474.05,-476.61 481.12,-484.5 484.5,-478.38"/>
<text xml:space="preserve" text-anchor="middle" x="703" y="-554.25" font-family="Arial" font-size="10.00"> &#160;TCPRoute</text>
<text xml:space="preserve" text-anchor="middle" x="703" y="-542.25" font-family="Arial" font-size="10.00"> &#160;events &#160;</text>
</g>
<!-- flow1_1 -->
<g id="node8" class="node">
<title>flow1_1</title>
<polygon fill="#bbdefb" stroke="black" points="1543,-664.38 1413,-664.38 1413,-628.38 1549,-628.38 1549,-658.38 1543,-664.38"/>
<polyline fill="none" stroke="black" points="1543,-664.38 1543,-658.38"/>
<polyline fill="none" stroke="black" points="1549,-658.38 1543,-658.38"/>
<text xml:space="preserve" text-anchor="middle" x="1481" y="-642.1" font-family="Arial" font-size="12.00">1. HTTPRoute created</text>
</g>
<!-- flow1_2 -->
<g id="node9" class="node">
<title>flow1_2</title>
<polygon fill="#90caf9" stroke="black" points="1532.88,-460.62 1423.12,-460.62 1423.12,-424.12 1538.88,-424.12 1538.88,-454.62 1532.88,-460.62"/>
<polyline fill="none" stroke="black" points="1532.88,-460.62 1532.88,-454.62"/>
<polyline fill="none" stroke="black" points="1538.88,-454.62 1532.88,-454.62"/>
<text xml:space="preserve" text-anchor="middle" x="1481" y="-445.23" font-family="Arial" font-size="12.00">2. HTTP Controller</text>
<text xml:space="preserve" text-anchor="middle" x="1481" y="-430.98" font-family="Arial" font-size="12.00">calls SetRoute()</text>
</g>
<!-- flow1_1&#45;&gt;flow1_2 -->
<!-- flow1_3 -->
<g id="node10" class="node">
<title>flow1_3</title>
<polygon fill="#a5d6a7" stroke="black" points="1543.38,-292.75 1412.62,-292.75 1412.62,-256.25 1549.38,-256.25 1549.38,-286.75 1543.38,-292.75"/>
<polyline fill="none" stroke="black" points="1543.38,-292.75 1543.38,-286.75"/>
<polyline fill="none" stroke="black" points="1549.38,-286.75 1543.38,-286.75"/>
<text xml:space="preserve" text-anchor="middle" x="1481" y="-277.35" font-family="Arial" font-size="12.00">3. Gateway Controller</text>
<text xml:space="preserve" text-anchor="middle" x="1481" y="-263.1" font-family="Arial" font-size="12.00">calls StartForwarding()</text>
</g>
<!-- flow1_2&#45;&gt;flow1_3 -->
<!-- flow1_4 -->
<g id="node11" class="node">
<title>flow1_4</title>
<polygon fill="#ffcc80" stroke="black" points="1527.25,-162 1428.75,-162 1428.75,-125.5 1533.25,-125.5 1533.25,-156 1527.25,-162"/>
<polyline fill="none" stroke="black" points="1527.25,-162 1527.25,-156"/>
<polyline fill="none" stroke="black" points="1533.25,-156 1527.25,-156"/>
<text xml:space="preserve" text-anchor="middle" x="1481" y="-146.6" font-family="Arial" font-size="12.00">4. SSH Manager</text>
<text xml:space="preserve" text-anchor="middle" x="1481" y="-132.35" font-family="Arial" font-size="12.00">creates tunnel</text>
</g>
<!-- flow1_3&#45;&gt;flow1_4 -->
<!-- flow1_5 -->
<g id="node12" class="node">
<title>flow1_5</title>
<polygon fill="#e1bee7" stroke="black" points="1530.25,-52.5 1425.75,-52.5 1425.75,-16 1536.25,-16 1536.25,-46.5 1530.25,-52.5"/>
<polyline fill="none" stroke="black" points="1530.25,-52.5 1530.25,-46.5"/>
<polyline fill="none" stroke="black" points="1536.25,-46.5 1530.25,-46.5"/>
<text xml:space="preserve" text-anchor="middle" x="1481" y="-37.1" font-family="Arial" font-size="12.00">5. Gateway status</text>
<text xml:space="preserve" text-anchor="middle" x="1481" y="-22.85" font-family="Arial" font-size="12.00">updated</text>
</g>
<!-- flow1_4&#45;&gt;flow1_5 -->
<!-- flow2_1 -->
<g id="node13" class="node">
<title>flow2_1</title>
<polygon fill="#ffe0b2" stroke="black" points="1732.5,-664.62 1623.5,-664.62 1623.5,-628.12 1738.5,-628.12 1738.5,-658.62 1732.5,-664.62"/>
<polyline fill="none" stroke="black" points="1732.5,-664.62 1732.5,-658.62"/>
<polyline fill="none" stroke="black" points="1738.5,-658.62 1732.5,-658.62"/>
<text xml:space="preserve" text-anchor="middle" x="1681" y="-649.23" font-family="Arial" font-size="12.00">1. SSH disconnect</text>
<text xml:space="preserve" text-anchor="middle" x="1681" y="-634.98" font-family="Arial" font-size="12.00">detected</text>
</g>
<!-- flow2_2 -->
<g id="node14" class="node">
<title>flow2_2</title>
<polygon fill="#a5d6a7" stroke="black" points="1745.25,-460.62 1610.75,-460.62 1610.75,-424.12 1751.25,-424.12 1751.25,-454.62 1745.25,-460.62"/>
<polyline fill="none" stroke="black" points="1745.25,-460.62 1745.25,-454.62"/>
<polyline fill="none" stroke="black" points="1751.25,-454.62 1745.25,-454.62"/>
<text xml:space="preserve" text-anchor="middle" x="1681" y="-445.23" font-family="Arial" font-size="12.00">2. Gateway Reconcile()</text>
<text xml:space="preserve" text-anchor="middle" x="1681" y="-430.98" font-family="Arial" font-size="12.00">calls Connect()</text>
</g>
<!-- flow2_1&#45;&gt;flow2_2 -->
<!-- flow2_3 -->
<g id="node15" class="node">
<title>flow2_3</title>
<polygon fill="#ffcc80" stroke="black" points="1732.88,-292.5 1623.12,-292.5 1623.12,-256.5 1738.88,-256.5 1738.88,-286.5 1732.88,-292.5"/>
<polyline fill="none" stroke="black" points="1732.88,-292.5 1732.88,-286.5"/>
<polyline fill="none" stroke="black" points="1738.88,-286.5 1732.88,-286.5"/>
<text xml:space="preserve" text-anchor="middle" x="1681" y="-270.23" font-family="Arial" font-size="12.00">3. SSH reconnects</text>
</g>
<!-- flow2_2&#45;&gt;flow2_3 -->
<!-- flow2_4 -->
<g id="node16" class="node">
<title>flow2_4</title>
<polygon fill="#90caf9" stroke="black" points="1736.62,-162 1619.38,-162 1619.38,-125.5 1742.62,-125.5 1742.62,-156 1736.62,-162"/>
<polyline fill="none" stroke="black" points="1736.62,-162 1736.62,-156"/>
<polyline fill="none" stroke="black" points="1742.62,-156 1736.62,-156"/>
<text xml:space="preserve" text-anchor="middle" x="1681" y="-146.6" font-family="Arial" font-size="12.00">4. Routes reconcile</text>
<text xml:space="preserve" text-anchor="middle" x="1681" y="-132.35" font-family="Arial" font-size="12.00">validate forwardings</text>
</g>
<!-- flow2_3&#45;&gt;flow2_4 -->
<!-- flow2_5 -->
<g id="node17" class="node">
<title>flow2_5</title>
<polygon fill="#ffcc80" stroke="black" points="1739.62,-52.5 1616.38,-52.5 1616.38,-16 1745.62,-16 1745.62,-46.5 1739.62,-52.5"/>
<polyline fill="none" stroke="black" points="1739.62,-52.5 1739.62,-46.5"/>
<polyline fill="none" stroke="black" points="1745.62,-46.5 1739.62,-46.5"/>
<text xml:space="preserve" text-anchor="middle" x="1681" y="-37.1" font-family="Arial" font-size="12.00">5. Invalid forwardings</text>
<text xml:space="preserve" text-anchor="middle" x="1681" y="-22.85" font-family="Arial" font-size="12.00">re&#45;established</text>
</g>
<!-- flow2_4&#45;&gt;flow2_5 -->
<!-- flow3_1 -->
<g id="node18" class="node">
<title>flow3_1</title>
<polygon fill="#ffcdd2" stroke="black" points="1950,-664.38 1820,-664.38 1820,-628.38 1956,-628.38 1956,-658.38 1950,-664.38"/>
<polyline fill="none" stroke="black" points="1950,-664.38 1950,-658.38"/>
<polyline fill="none" stroke="black" points="1956,-658.38 1950,-658.38"/>
<text xml:space="preserve" text-anchor="middle" x="1888" y="-642.1" font-family="Arial" font-size="12.00">1. HTTPRoute deleted</text>
</g>
<!-- flow3_2 -->
<g id="node19" class="node">
<title>flow3_2</title>
<polygon fill="#90caf9" stroke="black" points="1946.25,-460.62 1823.75,-460.62 1823.75,-424.12 1952.25,-424.12 1952.25,-454.62 1946.25,-460.62"/>
<polyline fill="none" stroke="black" points="1946.25,-460.62 1946.25,-454.62"/>
<polyline fill="none" stroke="black" points="1952.25,-454.62 1946.25,-454.62"/>
<text xml:space="preserve" text-anchor="middle" x="1888" y="-445.23" font-family="Arial" font-size="12.00">2. HTTP Controller</text>
<text xml:space="preserve" text-anchor="middle" x="1888" y="-430.98" font-family="Arial" font-size="12.00">calls RemoveRoute()</text>
</g>
<!-- flow3_1&#45;&gt;flow3_2 -->
<!-- flow3_3 -->
<g id="node20" class="node">
<title>flow3_3</title>
<polygon fill="#a5d6a7" stroke="black" points="1950.38,-292.75 1819.62,-292.75 1819.62,-256.25 1956.38,-256.25 1956.38,-286.75 1950.38,-292.75"/>
<polyline fill="none" stroke="black" points="1950.38,-292.75 1950.38,-286.75"/>
<polyline fill="none" stroke="black" points="1956.38,-286.75 1950.38,-286.75"/>
<text xml:space="preserve" text-anchor="middle" x="1888" y="-277.35" font-family="Arial" font-size="12.00">3. Gateway Controller</text>
<text xml:space="preserve" text-anchor="middle" x="1888" y="-263.1" font-family="Arial" font-size="12.00">calls StopForwarding()</text>
</g>
<!-- flow3_2&#45;&gt;flow3_3 -->
<!-- flow3_4 -->
<g id="node21" class="node">
<title>flow3_4</title>
<polygon fill="#ffcc80" stroke="black" points="1934.25,-162 1835.75,-162 1835.75,-125.5 1940.25,-125.5 1940.25,-156 1934.25,-162"/>
<polyline fill="none" stroke="black" points="1934.25,-162 1934.25,-156"/>
<polyline fill="none" stroke="black" points="1940.25,-156 1934.25,-156"/>
<text xml:space="preserve" text-anchor="middle" x="1888" y="-146.6" font-family="Arial" font-size="12.00">4. SSH Manager</text>
<text xml:space="preserve" text-anchor="middle" x="1888" y="-132.35" font-family="Arial" font-size="12.00">cleans tunnel</text>
</g>
<!-- flow3_3&#45;&gt;flow3_4 -->
<!-- flow3_5 -->
<g id="node22" class="node">
<title>flow3_5</title>
<polygon fill="#e1bee7" stroke="black" points="1937.25,-52.5 1832.75,-52.5 1832.75,-16 1943.25,-16 1943.25,-46.5 1937.25,-52.5"/>
<polyline fill="none" stroke="black" points="1937.25,-52.5 1937.25,-46.5"/>
<polyline fill="none" stroke="black" points="1943.25,-46.5 1937.25,-46.5"/>
<text xml:space="preserve" text-anchor="middle" x="1888" y="-37.1" font-family="Arial" font-size="12.00">5. Gateway status</text>
<text xml:space="preserve" text-anchor="middle" x="1888" y="-22.85" font-family="Arial" font-size="12.00">updated</text>
</g>
<!-- flow3_4&#45;&gt;flow3_5 -->
</g>
</svg>
